<svg width="145" height="42" viewBox="0 0 145 42" fill="none" xmlns="http://www.w3.org/2000/svg">
<path fill-rule="evenodd" clip-rule="evenodd" d="M4.43912 14.7742C4.866 13.59 5.42112 12.5174 6.10266 11.5532C6.43855 11.0891 6.80985 10.6704 7.21841 10.299C7.62514 9.92951 8.0685 9.60729 8.5479 9.32921C9.41021 8.83548 10.4515 8.57379 11.6576 8.52083C11.8035 8.51515 11.9428 8.49813 12.0912 8.49813C13.5672 8.49813 14.8228 8.98871 15.8641 9.96735C16.9041 10.9447 17.4226 12.1403 17.4226 13.5496C17.4226 13.7394 17.403 13.9134 17.3927 14.095C17.8623 14.2937 18.3282 14.4879 18.7869 14.6581C19.8159 15.0428 20.8083 15.4533 21.7744 15.8871C21.7769 15.8272 21.7818 15.7723 21.7818 15.7118C21.7818 14.4147 21.524 13.2028 21.0098 12.0823C20.5011 10.958 19.7701 9.95852 18.8217 9.0751C17.924 8.24401 16.8577 7.59074 15.6314 7.11592C14.4051 6.64237 13.1239 6.40527 11.7913 6.40527C11.7205 6.40527 11.6576 6.41284 11.5874 6.41284C10.1467 6.43491 8.84837 6.66822 7.70269 7.1279C7.60559 7.16763 7.51338 7.20925 7.4175 7.25023C6.32679 7.70361 5.31914 8.2232 4.40492 8.81152L3.44918 6.40527H1.54135V18.504H3.28734C3.62933 17.2056 4.01102 15.9628 4.43912 14.7742Z" fill="#737174"/>
<path fill-rule="evenodd" clip-rule="evenodd" d="M20.8235 29.6415C20.4546 31.0268 20.0155 32.2798 19.5221 33.4085C20.0375 33.336 20.5193 33.2263 20.9536 33.0686C21.6809 32.8063 22.2739 32.4387 22.7496 31.9803V29.6415H20.8235Z" fill="#737174"/>
<path fill-rule="evenodd" clip-rule="evenodd" d="M17.4019 36.8047C16.5921 37.7525 15.6522 38.5066 14.5713 39.0678C13.4922 39.6271 12.2372 39.9077 10.8081 39.9077C9.73942 39.9077 8.80261 39.7633 8.00198 39.4745C7.20563 39.1857 6.55585 38.7771 6.05691 38.2462C5.56224 37.7165 5.1946 37.0948 4.95337 36.3803C4.71215 35.6672 4.59001 34.8418 4.59001 33.9117C4.59001 32.5459 4.96437 31.2746 5.70942 30.0961C5.85538 29.8628 6.02881 29.6472 6.20531 29.4359C6.9186 28.5796 7.85786 27.8967 9.03956 27.4112C9.19712 27.3456 9.36384 27.2769 9.52995 27.2119C10.4185 26.8481 11.4097 26.4571 12.5102 26.0327C13.8146 25.5308 14.9401 25.0547 15.8886 24.607C17.7524 23.7413 19.1998 22.6081 20.2318 21.2076C20.2404 21.195 20.2465 21.1818 20.2563 21.1698C20.1421 21.1168 20.0376 21.0525 19.9179 21.0033C18.9072 20.5884 17.7524 20.1294 16.4455 19.6243C15.8165 19.3834 15.2278 19.1444 14.6763 18.9155C14.3178 19.1633 13.9392 19.3998 13.5111 19.6104C12.3764 20.171 11.2662 20.6578 10.1663 21.0658C9.0762 21.475 8.01236 21.9114 6.99005 22.3754C6.05691 22.7941 5.16223 23.2664 4.29931 23.7936C3.43823 24.3226 2.6889 24.9419 2.05194 25.6481C1.35391 26.4483 0.837261 27.3267 0.501987 28.2788C0.168545 29.2335 -7.62939e-06 30.3452 -7.62939e-06 31.6126C-7.62939e-06 34.6286 1.08215 37.1093 3.24219 39.0678C5.39918 41.0201 8.07466 42 11.2759 42C12.7508 42 14.2281 41.7635 15.7029 41.2912C17.1771 40.8202 18.451 40.2451 19.5222 39.5716L20.5244 42H22.751V34.5845C21.4148 35.1716 19.943 35.4982 18.3301 35.5694C18.0443 35.9938 17.7396 36.4081 17.4019 36.8047Z" fill="#737174"/>
<path fill-rule="evenodd" clip-rule="evenodd" d="M11.588 6.4135C11.7407 5.3182 12.2372 4.36352 13.0934 3.56081C14.134 2.58154 15.3914 2.09222 16.8657 2.09222C18.266 2.09222 19.4447 2.36904 20.4077 2.92142C21.369 3.47632 22.1855 4.21786 22.8511 5.14732C23.5363 6.1083 24.0908 7.18468 24.5177 8.37078C24.9422 9.55814 25.3287 10.7978 25.6713 12.0987H27.4149V0H25.5071L24.5538 2.40498C23.5571 1.7637 22.4609 1.20501 21.2572 0.72263C20.0541 0.239616 18.6892 0 17.1686 0C15.8342 0 14.5511 0.236463 13.3254 0.710649C12.0992 1.18484 11.0347 1.83495 10.1333 2.66919C9.18735 3.55072 8.45695 4.5527 7.94457 5.67574C7.71617 6.18019 7.54396 6.70545 7.41754 7.24963C7.51342 7.20927 7.60442 7.16766 7.70335 7.12793C8.84841 6.66888 10.1461 6.43431 11.588 6.4135Z" fill="#96AB3A"/>
<path fill-rule="evenodd" clip-rule="evenodd" d="M28.455 21.8734C28.1203 20.9206 27.6037 20.0435 26.9069 19.2402C26.2693 18.5352 25.5194 17.9179 24.6607 17.3875C23.796 16.8598 22.8976 16.3881 21.9675 15.97C21.9052 15.941 21.8405 15.9152 21.7745 15.8868C20.8078 15.453 19.816 15.0418 18.787 14.6578C18.329 14.4882 17.8624 14.2934 17.3928 14.0947C16.7473 13.8211 16.1018 13.5285 15.4465 13.2037C14.175 12.5795 13.2016 11.7812 12.5328 10.8095C12.0889 10.165 11.8067 9.39384 11.6577 8.52051C10.451 8.57411 9.41094 8.83516 8.54864 9.3289C8.06802 9.60761 7.62526 9.9292 7.21914 10.2987C7.34922 12.1091 7.85 13.6098 8.72513 14.7984C9.76148 16.2021 11.2076 17.3346 13.0709 18.2003C13.5576 18.433 14.0974 18.6707 14.677 18.9154C15.2279 19.1443 15.8166 19.3833 16.445 19.6248C17.7519 20.1305 18.9073 20.5883 19.918 21.0032C20.0371 21.0524 20.1415 21.1167 20.2557 21.1697C21.5553 21.7712 22.5654 22.6049 23.2488 23.6869C23.9944 24.8686 24.3682 26.1398 24.3682 27.5069C24.3682 28.4363 24.2473 29.2592 24.006 29.973C23.7654 30.6887 23.3941 31.3111 22.8976 31.8414C22.8512 31.89 22.7981 31.9335 22.7504 31.9801C22.2741 32.4392 21.6811 32.8062 20.9538 33.0685C20.519 33.2261 20.0371 33.3358 19.5217 33.409C19.0887 33.4683 18.6337 33.5023 18.1482 33.5023C16.7167 33.5023 15.4648 33.223 14.3857 32.6605C13.3066 32.0999 12.3612 31.3451 11.5557 30.4006C10.7178 29.4106 10.043 28.3455 9.52942 27.2112C9.36392 27.2767 9.19659 27.3448 9.03964 27.4117C7.85732 27.8966 6.91807 28.5795 6.20538 29.4352V35.5939H8.43382L9.43598 33.165C10.5078 33.839 11.7823 34.4141 13.2571 34.8845C14.7295 35.3574 16.208 35.5939 17.6823 35.5939C17.9033 35.5939 18.1146 35.5781 18.3296 35.5693C19.9437 35.4987 21.4148 35.1714 22.7504 34.5844C23.8277 34.107 24.8207 33.4739 25.7184 32.6605C27.8748 30.7032 28.957 28.2194 28.957 25.2053C28.957 23.9385 28.7896 22.8274 28.455 21.8734Z" fill="#96AB3A"/>
<path fill-rule="evenodd" clip-rule="evenodd" d="M40.2838 21.3254C40.5677 21.6501 40.776 22.0058 40.9116 22.3923C41.0465 22.7801 41.1143 23.2291 41.1143 23.7417C41.1143 24.9638 40.6777 25.9708 39.8025 26.7634C38.9274 27.5554 37.8428 27.952 36.5469 27.952C35.949 27.952 35.3511 27.8568 34.7527 27.6651C34.1554 27.4734 33.64 27.2407 33.2051 26.9677L32.799 27.6796H32.0442L31.9123 22.9434H32.6763C32.8351 23.528 33.0177 24.0557 33.229 24.5268C33.439 24.9984 33.7181 25.4379 34.065 25.8472C34.3917 26.2306 34.774 26.5358 35.2107 26.7634C35.6479 26.991 36.156 27.1045 36.735 27.1045C37.1692 27.1045 37.5484 27.0465 37.8727 26.9286C38.1964 26.8113 38.459 26.6455 38.6617 26.4311C38.862 26.2161 39.0111 25.9638 39.1082 25.675C39.2065 25.385 39.2553 25.0527 39.2553 24.6743C39.2553 24.1213 39.1039 23.6061 38.8016 23.1275C38.5005 22.6496 38.0504 22.2864 37.4526 22.0398C37.044 21.8715 36.575 21.6854 36.0467 21.4818C35.5179 21.2781 35.0617 21.0851 34.6775 20.9042C33.9221 20.5536 33.3358 20.0945 32.9175 19.5251C32.4992 18.9576 32.2897 18.2154 32.2897 17.2998C32.2897 16.7733 32.3935 16.2827 32.6012 15.8294C32.8088 15.3735 33.1044 14.968 33.4885 14.6105C33.8531 14.2725 34.2849 14.0089 34.7814 13.8172C35.2779 13.6255 35.7976 13.5291 36.3386 13.5291C36.9561 13.5291 37.5069 13.6268 37.9949 13.8216C38.4828 14.0165 38.9274 14.2447 39.3305 14.5033L39.7176 13.8418H40.4731L40.5476 18.4311H39.7842C39.645 17.9052 39.4892 17.4026 39.3164 16.9209C39.1436 16.4404 38.9182 16.004 38.6416 15.615C38.3717 15.2385 38.0407 14.9384 37.6504 14.7139C37.2602 14.49 36.782 14.3772 36.2165 14.3772C35.618 14.3772 35.1081 14.5752 34.6867 14.9712C34.2653 15.3684 34.0552 15.8514 34.0552 16.4234C34.0552 17.0211 34.1896 17.5174 34.4607 17.9102C34.7313 18.3031 35.124 18.6266 35.64 18.8794C36.0999 19.107 36.5512 19.3032 36.9951 19.469C37.4385 19.6342 37.8678 19.8114 38.2831 20.0006C38.6617 20.1696 39.0245 20.3606 39.3732 20.5744C39.7225 20.7894 40.0254 21.0397 40.2838 21.3254Z" fill="#96AB3A"/>
<path fill-rule="evenodd" clip-rule="evenodd" d="M52.2043 25.2822C52.5561 24.6913 52.8132 24.0223 52.9732 23.2745C53.1338 22.5279 53.2138 21.6924 53.2138 20.7705C53.2138 19.8215 53.124 18.9513 52.9445 18.1587C52.7656 17.3654 52.503 16.6895 52.1567 16.1314C51.8104 15.5797 51.3762 15.149 50.8547 14.84C50.3325 14.5317 49.7347 14.3765 49.0617 14.3765C48.3062 14.3765 47.6644 14.5569 47.1361 14.9131C46.6073 15.2707 46.1767 15.7486 45.8433 16.3452C45.5288 16.9177 45.2943 17.5867 45.1398 18.3535C44.9859 19.1197 44.9089 19.9249 44.9089 20.7705C44.9089 21.7056 44.9901 22.5506 45.1538 23.3041C45.3175 24.0576 45.5758 24.726 45.9282 25.3112C46.2671 25.8831 46.6952 26.3296 47.2119 26.6505C47.7273 26.9727 48.3441 27.1335 49.0617 27.1335C49.7347 27.1335 50.3423 26.9709 50.8834 26.6461C51.4238 26.3214 51.8648 25.8667 52.2043 25.2822ZM53.6101 15.4775C54.2019 16.1156 54.6642 16.8837 54.9977 17.7835C55.3311 18.6833 55.4978 19.679 55.4978 20.7705C55.4978 21.8677 55.328 22.8652 54.9885 23.7619C54.6489 24.6586 54.1769 25.4215 53.5723 26.0515C52.9872 26.6751 52.3081 27.1569 51.5332 27.4942C50.76 27.8322 49.9362 28.0012 49.0617 28.0012C48.1303 28.0012 47.2693 27.8202 46.4802 27.4602C45.6906 27.0995 45.0127 26.5969 44.446 25.9544C43.8805 25.3244 43.4341 24.5596 43.1104 23.6591C42.7861 22.7599 42.6243 21.7958 42.6243 20.7705C42.6243 19.6456 42.7941 18.6448 43.1342 17.7639C43.4744 16.8837 43.9428 16.1219 44.54 15.4775C45.1318 14.8419 45.8195 14.3545 46.6024 14.0171C47.3865 13.6798 48.2061 13.5101 49.0617 13.5101C49.949 13.5101 50.7851 13.6816 51.5716 14.0266C52.3582 14.3709 53.0379 14.8545 53.6101 15.4775Z" fill="#96AB3A"/>
<path fill-rule="evenodd" clip-rule="evenodd" d="M66.6034 17.301H65.895C65.7637 16.7877 65.4882 16.2385 65.0693 15.6539C64.6504 15.0694 64.2491 14.7478 63.8656 14.6892C63.6702 14.6639 63.44 14.6438 63.1725 14.6305C62.9044 14.6179 62.6015 14.611 62.2613 14.611H60.0152V20.1656H61.5572C62.0237 20.1656 62.3865 20.1152 62.6454 20.0149C62.9044 19.914 63.1248 19.7602 63.3074 19.5521C63.4338 19.4083 63.5493 19.1864 63.6525 18.8843C63.7575 18.5816 63.8247 18.2594 63.8558 17.9151H64.5636V23.3519H63.8558C63.8381 23.0669 63.7728 22.7421 63.6622 22.3783C63.5523 22.0138 63.4338 21.7515 63.3074 21.5888C63.1175 21.3486 62.8806 21.184 62.5935 21.0957C62.3059 21.0087 61.9614 20.9652 61.5572 20.9652H60.0152V25.7228C60.0152 25.9366 60.0561 26.1283 60.1379 26.2973C60.2197 26.4656 60.3639 26.6018 60.5721 26.7052C60.6662 26.7506 60.8707 26.8055 61.1852 26.8711C61.4998 26.9354 61.7392 26.9713 61.9022 26.977V27.6694H56.0981V26.977C56.2874 26.9644 56.5391 26.9436 56.8536 26.9146C57.1681 26.885 57.3727 26.8471 57.4667 26.8017C57.656 26.7179 57.7922 26.593 57.8777 26.4272C57.9626 26.2613 58.0047 26.0621 58.0047 25.8275V15.8488C58.0047 15.635 57.9699 15.4446 57.9015 15.2787C57.8325 15.1123 57.6872 14.978 57.4667 14.8745C57.2969 14.79 57.0691 14.7144 56.7827 14.6501C56.4963 14.5851 56.2685 14.546 56.0981 14.5328V13.8417H66.6034V17.301Z" fill="#96AB3A"/>
<path fill-rule="evenodd" clip-rule="evenodd" d="M79.6499 17.5932H78.9983C78.9421 17.3599 78.8395 17.0812 78.6917 16.7589C78.5433 16.438 78.3778 16.1353 78.1952 15.8484C78.0059 15.5508 77.7995 15.2878 77.576 15.0646C77.3518 14.8395 77.135 14.7115 76.9262 14.68C76.7314 14.6541 76.4859 14.6346 76.1897 14.6213C75.8923 14.6074 75.6187 14.6018 75.3664 14.6018H74.818V25.6619C74.818 25.8763 74.8614 26.0731 74.9493 26.2515C75.0385 26.4306 75.1924 26.568 75.4123 26.6658C75.5252 26.7106 75.7622 26.773 76.1249 26.8512C76.4871 26.9294 76.768 26.971 76.9689 26.9779V27.6696H70.6464V26.9779C70.8216 26.9647 71.0916 26.9388 71.4531 26.8997C71.814 26.8613 72.0644 26.8121 72.2043 26.7534C72.4113 26.6689 72.564 26.5472 72.6604 26.3883C72.7594 26.2282 72.807 26.0163 72.807 25.7496V14.6018H72.2598C72.0644 14.6018 71.8232 14.6062 71.5331 14.6163C71.2442 14.6257 70.967 14.6465 70.7025 14.68C70.4961 14.7052 70.2793 14.8332 70.0558 15.0646C69.8323 15.2954 69.6265 15.5565 69.4378 15.8484C69.2491 16.141 69.0824 16.4512 68.9382 16.7798C68.7929 17.107 68.6921 17.3782 68.6353 17.5932H67.9752V13.8413H79.6499V17.5932Z" fill="#96AB3A"/>
<path fill-rule="evenodd" clip-rule="evenodd" d="M89.0502 21.3254C89.3324 21.6501 89.5418 22.0058 89.678 22.3923C89.813 22.7801 89.8808 23.2291 89.8808 23.7417C89.8808 24.9638 89.4435 25.9708 88.569 26.7634C87.6939 27.5554 86.6087 27.952 85.3134 27.952C84.7149 27.952 84.1176 27.8568 83.5191 27.6651C82.9219 27.4734 82.4052 27.2407 81.9716 26.9677L81.5661 27.6796H80.8107L80.6788 22.9434H81.4428C81.6003 23.528 81.7841 24.0557 81.9948 24.5268C82.2055 24.9984 82.484 25.4379 82.8309 25.8472C83.1576 26.2306 83.5405 26.5358 83.9772 26.7634C84.4138 26.991 84.9213 27.1045 85.5008 27.1045C85.9351 27.1045 86.3149 27.0465 86.6386 26.9286C86.9623 26.8113 87.2255 26.6455 87.4264 26.4311C87.6273 26.2161 87.7775 25.9638 87.8746 25.675C87.9717 25.385 88.0212 25.0527 88.0212 24.6743C88.0212 24.1213 87.8697 23.6061 87.5681 23.1275C87.2664 22.6496 86.8169 22.2864 86.219 22.0398C85.8099 21.8715 85.3415 21.6854 84.8126 21.4818C84.2843 21.2781 83.8275 21.0851 83.4434 20.9042C82.6886 20.5536 82.1023 20.0945 81.684 19.5251C81.2657 18.9576 81.0556 18.2154 81.0556 17.2998C81.0556 16.7733 81.16 16.2827 81.3676 15.8294C81.5747 15.3735 81.8702 14.968 82.2544 14.6105C82.6184 14.2725 83.0507 14.0089 83.5478 13.8172C84.0443 13.6255 84.5634 13.5291 85.1051 13.5291C85.7213 13.5291 86.2734 13.6268 86.7613 13.8216C87.2487 14.0165 87.6939 14.2447 88.0969 14.5033L88.4835 13.8418H89.2389L89.3134 18.4311H88.5501C88.4108 17.9052 88.2563 17.4026 88.0829 16.9209C87.9101 16.4404 87.6841 16.004 87.4074 15.615C87.1381 15.2385 86.8065 14.9384 86.4169 14.7139C86.0267 14.49 85.5485 14.3772 84.9818 14.3772C84.3845 14.3772 83.8746 14.5752 83.4526 14.9712C83.0312 15.3684 82.8211 15.8514 82.8211 16.4234C82.8211 17.0211 82.9567 17.5174 83.2266 17.9102C83.4978 18.3031 83.8904 18.6266 84.4065 18.8794C84.8657 19.107 85.3164 19.3032 85.761 19.469C86.2044 19.6342 86.6337 19.8114 87.0496 20.0006C87.4264 20.1696 87.7904 20.3606 88.1391 20.5744C88.4884 20.7894 88.7925 21.0397 89.0502 21.3254Z" fill="#737174"/>
<path fill-rule="evenodd" clip-rule="evenodd" d="M97.9749 19.6104C98.1881 19.2989 98.3304 18.9754 98.3988 18.6406C98.469 18.3064 98.5032 18.0056 98.5032 17.7395C98.5032 17.3687 98.4604 16.9923 98.3756 16.6095C98.2919 16.2261 98.1447 15.8913 97.9371 15.6056C97.7166 15.2998 97.4271 15.0627 97.0693 14.8937C96.7102 14.7254 96.2631 14.6409 95.7288 14.6409H94.3975V20.7504H95.3605C96.0402 20.7504 96.5923 20.6426 97.0168 20.4238C97.4418 20.2069 97.7606 19.9351 97.9749 19.6104ZM100.843 17.2527C100.843 17.9728 100.708 18.6116 100.433 19.1671C100.16 19.7226 99.7808 20.1823 99.2959 20.5461C98.8183 20.91 98.2931 21.1761 97.7203 21.3457C97.1474 21.5141 96.5404 21.5979 95.898 21.5979H94.3975V25.7887C94.3975 26.0163 94.4335 26.2162 94.5062 26.3883C94.5782 26.5599 94.7285 26.6916 94.9544 26.7831C95.068 26.8285 95.2677 26.8707 95.5541 26.9098C95.8405 26.9489 96.1032 26.971 96.3419 26.9779V27.6696H90.594V26.9779C90.7455 26.9647 90.9641 26.942 91.2505 26.9098C91.5363 26.877 91.7366 26.8354 91.849 26.7831C92.0383 26.6986 92.1751 26.575 92.2594 26.4129C92.3449 26.2502 92.3864 26.0422 92.3864 25.7887V15.8093C92.3864 15.5823 92.3565 15.378 92.2936 15.1958C92.2301 15.0142 92.0817 14.878 91.849 14.7872C91.6102 14.702 91.3739 14.6428 91.1369 14.6062C90.9006 14.5709 90.6985 14.5469 90.5281 14.533V13.8413H96.6442C97.8894 13.8413 98.9008 14.1515 99.6776 14.7714C100.456 15.3925 100.843 16.2198 100.843 17.2527Z" fill="#737174"/>
<path fill-rule="evenodd" clip-rule="evenodd" d="M108.514 22.0174L106.485 16.6506L104.486 22.0174H108.514ZM113.902 27.6698H108.336V26.9774C108.826 26.9453 109.234 26.8797 109.558 26.7826C109.882 26.6849 110.044 26.5651 110.044 26.4219C110.044 26.3633 110.037 26.292 110.025 26.2075C110.012 26.1224 109.993 26.048 109.968 25.9837L108.859 22.8844H104.158C103.982 23.3397 103.838 23.7357 103.729 24.0737C103.618 24.4117 103.518 24.7238 103.43 25.0088C103.348 25.2882 103.291 25.5158 103.26 25.6911C103.229 25.8658 103.213 26.0089 103.213 26.1199C103.213 26.3803 103.411 26.5821 103.808 26.724C104.204 26.8671 104.65 26.9516 105.147 26.9774V27.6698H100.104V26.9774C100.267 26.9648 100.471 26.927 100.717 26.8652C100.962 26.8034 101.164 26.7208 101.321 26.6168C101.573 26.4408 101.768 26.258 101.906 26.0663C102.045 25.8746 102.18 25.6104 102.312 25.2724C102.986 23.5371 103.729 21.5886 104.54 19.4245C105.351 17.261 106.075 15.3353 106.71 13.646H107.466L111.929 25.5738C112.024 25.8273 112.131 26.0322 112.25 26.188C112.37 26.3437 112.536 26.4976 112.751 26.6464C112.895 26.7372 113.084 26.8129 113.317 26.8747C113.549 26.9371 113.745 26.9711 113.902 26.9774V27.6698Z" fill="#737174"/>
<path fill-rule="evenodd" clip-rule="evenodd" d="M120.277 28.0012C119.479 28.0012 118.714 27.8379 117.981 27.5138C117.249 27.1884 116.599 26.7206 116.033 26.1089C115.474 25.4985 115.027 24.7526 114.694 23.8717C114.361 22.9901 114.194 21.9964 114.194 20.8922C114.194 19.7868 114.359 18.7836 114.685 17.8832C115.012 16.9833 115.465 16.2077 116.042 15.5576C116.615 14.9145 117.291 14.4169 118.071 14.067C118.849 13.7151 119.683 13.5392 120.569 13.5392C121.229 13.5392 121.826 13.6243 122.36 13.7933C122.894 13.9617 123.403 14.1988 123.888 14.5033L124.275 13.8419H125.03L125.114 18.7723H124.341C124.24 18.2911 124.09 17.7703 123.889 17.2085C123.687 16.6466 123.451 16.1705 123.18 15.7809C122.879 15.3388 122.521 14.9933 122.107 14.7436C121.691 14.492 121.217 14.3677 120.683 14.3677C120.073 14.3677 119.506 14.5071 118.981 14.7864C118.457 15.0664 118.003 15.4794 117.619 16.0261C117.255 16.552 116.969 17.2223 116.761 18.0351C116.555 18.8467 116.451 19.7547 116.451 20.7548C116.451 21.6395 116.559 22.451 116.776 23.1894C116.993 23.9271 117.302 24.5754 117.704 25.1341C118.106 25.6871 118.582 26.119 119.133 26.4318C119.682 26.7439 120.297 26.8996 120.976 26.8996C121.486 26.8996 121.953 26.8164 122.38 26.6518C122.807 26.486 123.179 26.2659 123.493 25.9935C123.807 25.7072 124.084 25.3831 124.322 25.0193C124.561 24.6555 124.757 24.2582 124.907 23.8307L125.615 24.18C125.075 25.5515 124.357 26.5308 123.465 27.1191C122.572 27.7068 121.509 28.0012 120.277 28.0012Z" fill="#737174"/>
<path fill-rule="evenodd" clip-rule="evenodd" d="M138.054 23.596L137.799 27.6695H126.682V26.9771C126.87 26.9645 127.123 26.9374 127.436 26.8952C127.75 26.8523 127.955 26.8088 128.05 26.7634C128.25 26.6663 128.392 26.5389 128.469 26.3825C128.549 26.2274 128.588 26.0294 128.588 25.7885V15.8483C128.588 15.6351 128.553 15.4447 128.484 15.2789C128.415 15.113 128.269 14.9781 128.05 14.8747C127.879 14.7902 127.652 14.7151 127.366 14.6508C127.08 14.5852 126.851 14.5461 126.682 14.5335V13.8418H137.045V17.1743H136.337C136.211 16.68 135.939 16.156 135.52 15.6011C135.101 15.0449 134.704 14.741 134.326 14.6899C134.131 14.6634 133.898 14.6432 133.628 14.6306C133.357 14.6174 133.048 14.6111 132.703 14.6111H130.598V20.1071H132.108C132.593 20.1071 132.946 20.0605 133.17 19.9659C133.394 19.8719 133.59 19.7143 133.76 19.4936C133.898 19.3057 134.017 19.0534 134.114 18.7375C134.211 18.4235 134.276 18.1259 134.307 17.8465H135.015V23.265H134.307C134.282 22.9522 134.215 22.6231 134.104 22.2756C133.995 21.9282 133.88 21.6766 133.76 21.5202C133.565 21.2661 133.343 21.1021 133.094 21.0233C132.846 20.9451 132.517 20.906 132.108 20.906H130.598V25.052C130.598 25.4657 130.626 25.7936 130.684 26.0332C130.74 26.2734 130.85 26.455 131.013 26.5786C131.177 26.7016 131.4 26.781 131.684 26.817C131.967 26.8523 132.369 26.8706 132.891 26.8706H133.713C134.053 26.8706 134.339 26.8573 134.571 26.8321C134.811 26.8056 135.057 26.759 135.313 26.6902C135.567 26.6221 135.748 26.5294 135.855 26.4122C136.144 26.1007 136.449 25.6277 136.766 24.994C137.083 24.3615 137.287 23.8949 137.374 23.596H138.054Z" fill="#737174"/>
<path fill-rule="evenodd" clip-rule="evenodd" d="M141.81 16.5558H141.335V15.7235H141.835C142.095 15.7235 142.252 15.726 142.305 15.7342C142.408 15.7519 142.489 15.7947 142.546 15.8628C142.604 15.9309 142.631 16.0192 142.631 16.1296C142.631 16.2279 142.61 16.3106 142.567 16.3755C142.524 16.4417 142.463 16.4877 142.386 16.5155C142.31 16.542 142.118 16.5558 141.81 16.5558ZM142.798 17.2759C142.707 17.1757 142.592 17.0843 142.453 17.0004C142.733 16.9594 142.942 16.8579 143.082 16.6977C143.223 16.5369 143.292 16.3339 143.292 16.088C143.292 15.8937 143.247 15.721 143.153 15.5709C143.062 15.4202 142.938 15.3155 142.784 15.2562C142.63 15.1976 142.383 15.168 142.044 15.168H140.694V18.4494H141.335V17.0786H141.465C141.613 17.0786 141.72 17.0912 141.788 17.1158C141.856 17.1404 141.92 17.1858 141.981 17.2526C142.042 17.3188 142.155 17.4803 142.32 17.735L142.783 18.4494H143.55L143.162 17.8088C143.01 17.554 142.888 17.3762 142.798 17.2759ZM141.957 19.5258C140.55 19.5227 139.411 18.3467 139.408 16.8932C139.411 15.4404 140.55 14.2637 141.957 14.2612C143.366 14.2637 144.505 15.4404 144.507 16.8932C144.505 18.3467 143.366 19.5227 141.957 19.5258ZM141.957 13.7517C140.277 13.7517 138.916 15.1579 138.914 16.8932C138.916 18.6279 140.277 20.0347 141.957 20.0347C143.638 20.0347 145 18.6279 145 16.8932C145 15.1579 143.638 13.7517 141.957 13.7517Z" fill="#737174"/>
</svg>
