<?xml version="1.0" encoding="UTF-8"?>
<svg width="42px" height="32px" viewBox="0 0 42 32" version="1.1" xmlns="http://www.w3.org/2000/svg" xmlns:xlink="http://www.w3.org/1999/xlink">
    <title>img_jcb</title>
    <defs>
        <polygon id="path-1" points="0 0.04264 41.45674 0.04264 41.45674 31.9722 0 31.9722"></polygon>
        <path d="M0.01287,2.49106 L2.67917,2.49106 C2.76302,2.49106 2.92162,2.4778 2.99715,2.46116 C3.50896,2.35053 3.93523,1.89605 3.93523,1.27712 C3.93523,0.65793 3.50896,0.20241 2.99715,0.09165 C2.92162,0.07514 2.76302,0.06162 2.67917,0.06162 L0.01287,0.06162 L0.01287,2.49106" id="path-3"></path>
        <linearGradient x1="-57.4009015%" y1="50%" x2="233.026647%" y2="50%" id="linearGradient-5">
            <stop stop-color="#5FB345" offset="0%"></stop>
            <stop stop-color="#007444" offset="100%"></stop>
        </linearGradient>
        <path d="M4.70756,0.11232 C2.16372,0.11232 0.10114,2.17464 0.10114,4.71835 L0.10114,9.50274 L6.61908,9.50274 C6.77014,9.50274 6.955,9.51327 7.07031,9.51925 C8.54529,9.59322 9.63326,10.35099 9.63326,11.66607 C9.63326,12.70009 8.88966,13.58305 7.53649,13.78195 L7.53649,13.83382 C9.03136,13.93756 10.17575,14.76007 10.17575,16.05643 C10.17575,17.45848 8.91956,18.3599 7.24516,18.3599 L0.10114,18.3599 L0.10114,27.75019 L6.85737,27.75019 C9.40121,27.75019 11.46366,25.68774 11.46366,23.1439 L11.46366,0.11232 L4.70756,0.11232" id="path-6"></path>
        <linearGradient x1="0%" y1="50.0002352%" x2="100.258684%" y2="50.0002352%" id="linearGradient-8">
            <stop stop-color="#5FB345" offset="0%"></stop>
            <stop stop-color="#007444" offset="100%"></stop>
        </linearGradient>
        <path d="M3.61946,1.20926 C3.61946,0.60073 3.19319,0.19279 2.69204,0.10803 C2.64524,0.09997 2.51758,0.08775 2.4297,0.08775 L0.01287,0.08775 L0.01287,2.33038 L2.4297,2.33038 C2.51758,2.33038 2.64524,2.31777 2.69204,2.30971 C3.19319,2.22495 3.61946,1.81727 3.61946,1.20926" id="path-9"></path>
        <linearGradient x1="-62.4337671%" y1="50.0028984%" x2="253.412392%" y2="50.0028984%" id="linearGradient-11">
            <stop stop-color="#5FB345" offset="0%"></stop>
            <stop stop-color="#007444" offset="100%"></stop>
        </linearGradient>
        <path d="M4.69963,0.11232 C2.15553,0.11232 0.09334,2.17464 0.09334,4.71835 L0.09334,16.094 C1.38515,16.71982 2.71986,17.1275 4.07823,17.1275 C5.67086,17.1275 6.54589,16.15536 6.54589,14.84717 L6.54589,9.50287 L10.50751,9.50287 L10.50751,14.84717 C10.50751,16.93744 9.22441,18.61392 4.82144,18.61392 C2.17152,18.61392 0.09334,18.04257 0.09334,18.04257 L0.09334,27.75019 L6.84931,27.75019 C9.39315,27.75019 11.4556,25.68774 11.4556,23.1439 L11.4556,0.11232 L4.69963,0.11232" id="path-12"></path>
        <linearGradient x1="-0.129859729%" y1="50.0002352%" x2="101.679138%" y2="50.0002352%" id="linearGradient-14">
            <stop stop-color="#006EAB" offset="0%"></stop>
            <stop stop-color="#2F2E61" offset="100%"></stop>
        </linearGradient>
        <path d="M4.70366,0.11232 C2.15956,0.11232 0.09737,2.17464 0.09737,4.71835 L0.09737,10.74892 C1.26451,9.74766 3.28276,9.12223 6.56188,9.26978 C8.31714,9.34804 10.17848,9.81877 10.17848,9.81877 L10.17848,11.76916 C9.2469,11.297 8.12968,10.85968 6.69019,10.75061 C4.2016,10.56263 2.704,11.77878 2.704,13.93158 C2.704,16.08386 4.2016,17.29975 6.69019,17.11086 C8.12968,17.00283 9.26159,16.55381 10.17848,16.09374 L10.17848,18.04296 C10.17848,18.04296 8.31714,18.51356 6.56188,18.59325 C3.28276,18.7408 1.26451,18.11537 0.09737,17.11411 L0.09737,27.75019 L6.85334,27.75019 C9.39705,27.75019 11.45937,25.68774 11.45937,23.1439 L11.45937,0.11232 L4.70366,0.11232" id="path-15"></path>
        <linearGradient x1="-0.599542334%" y1="50.0002352%" x2="98.2811213%" y2="50.0002352%" id="linearGradient-17">
            <stop stop-color="#D91F43" offset="0%"></stop>
            <stop stop-color="#613033" offset="100%"></stop>
        </linearGradient>
    </defs>
    <g id="Asset-Export" stroke="none" stroke-width="1" fill="none" fill-rule="evenodd">
        <g id="img_jcb">
            <g id="Group-3">
                <mask id="mask-2" fill="white">
                    <use xlink:href="#path-1"></use>
                </mask>
                <g id="Clip-2"></g>
                <path d="M41.45674,25.53109 C41.45674,29.09244 38.56944,31.98 35.00796,31.98 L0,31.98 L0,6.49142 C0,2.92994 2.8873,0.04264 6.44917,0.04264 L41.45674,0.04264 L41.45674,25.53109" id="Fill-1" fill="#FFFFFE" mask="url(#mask-2)"></path>
            </g>
            <g id="Group-6" transform="translate(30.030000, 16.510000)">
                <mask id="mask-4" fill="white">
                    <use xlink:href="#path-3"></use>
                </mask>
                <g id="Clip-5"></g>
                <path d="M0.01287,2.49106 L2.67917,2.49106 C2.76302,2.49106 2.92162,2.4778 2.99715,2.46116 C3.50896,2.35053 3.93523,1.89605 3.93523,1.27712 C3.93523,0.65793 3.50896,0.20241 2.99715,0.09165 C2.92162,0.07514 2.76302,0.06162 2.67917,0.06162 L0.01287,0.06162 L0.01287,2.49106" id="Fill-4" fill="url(#linearGradient-5)" mask="url(#mask-4)"></path>
            </g>
            <g id="Group-9" transform="translate(27.690000, 2.080000)">
                <mask id="mask-7" fill="white">
                    <use xlink:href="#path-6"></use>
                </mask>
                <g id="Clip-8"></g>
                <path d="M4.70756,0.11232 C2.16372,0.11232 0.10114,2.17464 0.10114,4.71835 L0.10114,9.50274 L6.61908,9.50274 C6.77014,9.50274 6.955,9.51327 7.07031,9.51925 C8.54529,9.59322 9.63326,10.35099 9.63326,11.66607 C9.63326,12.70009 8.88966,13.58305 7.53649,13.78195 L7.53649,13.83382 C9.03136,13.93756 10.17575,14.76007 10.17575,16.05643 C10.17575,17.45848 8.91956,18.3599 7.24516,18.3599 L0.10114,18.3599 L0.10114,27.75019 L6.85737,27.75019 C9.40121,27.75019 11.46366,25.68774 11.46366,23.1439 L11.46366,0.11232 L4.70756,0.11232" id="Fill-7" fill="url(#linearGradient-8)" mask="url(#mask-7)"></path>
            </g>
            <g id="Group-12" transform="translate(30.030000, 12.870000)">
                <mask id="mask-10" fill="white">
                    <use xlink:href="#path-9"></use>
                </mask>
                <g id="Clip-11"></g>
                <path d="M3.61946,1.20926 C3.61946,0.60073 3.19319,0.19279 2.69204,0.10803 C2.64524,0.09997 2.51758,0.08775 2.4297,0.08775 L0.01287,0.08775 L0.01287,2.33038 L2.4297,2.33038 C2.51758,2.33038 2.64524,2.31777 2.69204,2.30971 C3.19319,2.22495 3.61946,1.81727 3.61946,1.20926" id="Fill-10" fill="url(#linearGradient-11)" mask="url(#mask-10)"></path>
            </g>
            <g id="Group-15" transform="translate(2.210000, 2.080000)">
                <mask id="mask-13" fill="white">
                    <use xlink:href="#path-12"></use>
                </mask>
                <g id="Clip-14"></g>
                <path d="M4.69963,0.11232 C2.15553,0.11232 0.09334,2.17464 0.09334,4.71835 L0.09334,16.094 C1.38515,16.71982 2.71986,17.1275 4.07823,17.1275 C5.67086,17.1275 6.54589,16.15536 6.54589,14.84717 L6.54589,9.50287 L10.50751,9.50287 L10.50751,14.84717 C10.50751,16.93744 9.22441,18.61392 4.82144,18.61392 C2.17152,18.61392 0.09334,18.04257 0.09334,18.04257 L0.09334,27.75019 L6.84931,27.75019 C9.39315,27.75019 11.4556,25.68774 11.4556,23.1439 L11.4556,0.11232 L4.69963,0.11232" id="Fill-13" fill="url(#linearGradient-14)" mask="url(#mask-13)"></path>
            </g>
            <g id="Group-18" transform="translate(14.950000, 2.080000)">
                <mask id="mask-16" fill="white">
                    <use xlink:href="#path-15"></use>
                </mask>
                <g id="Clip-17"></g>
                <path d="M4.70366,0.11232 C2.15956,0.11232 0.09737,2.17464 0.09737,4.71835 L0.09737,10.74892 C1.26451,9.74766 3.28276,9.12223 6.56188,9.26978 C8.31714,9.34804 10.17848,9.81877 10.17848,9.81877 L10.17848,11.76916 C9.2469,11.297 8.12968,10.85968 6.69019,10.75061 C4.2016,10.56263 2.704,11.77878 2.704,13.93158 C2.704,16.08386 4.2016,17.29975 6.69019,17.11086 C8.12968,17.00283 9.26159,16.55381 10.17848,16.09374 L10.17848,18.04296 C10.17848,18.04296 8.31714,18.51356 6.56188,18.59325 C3.28276,18.7408 1.26451,18.11537 0.09737,17.11411 L0.09737,27.75019 L6.85334,27.75019 C9.39705,27.75019 11.45937,25.68774 11.45937,23.1439 L11.45937,0.11232 L4.70366,0.11232" id="Fill-16" fill="url(#linearGradient-17)" mask="url(#mask-16)"></path>
            </g>
        </g>
    </g>
</svg>