<?xml version="1.0" encoding="UTF-8"?>
<svg width="44px" height="28px" viewBox="0 0 44 28" version="1.1" xmlns="http://www.w3.org/2000/svg" xmlns:xlink="http://www.w3.org/1999/xlink">
    <title>img_visa</title>
    <defs>
        <path d="M28.7076962,0 C25.2227097,0.0187987052 22.7743941,1.8540223 22.7546318,4.4754346 L22.7546318,4.4754346 C22.7314622,6.42596811 24.519954,7.51276825 25.8677116,8.16098789 L25.8677116,8.16098789 C27.2520976,8.82464932 27.716683,9.25047356 27.711572,9.84363985 L27.711572,9.84363985 C27.7010094,10.7525237 26.6064142,11.1530032 25.5833724,11.1686129 L25.5833724,11.1686129 C23.7959027,11.1961396 22.7585502,10.6927707 21.9315984,10.3132718 L21.9315984,10.3132718 L21.2881298,13.280446 C22.1181481,13.6560844 23.6516036,13.9835511 25.2416202,14 L25.2416202,14 C28.9770433,14 31.4197368,12.1827359 31.431492,9.36679055 L31.431492,9.36679055 C31.4471656,5.79352596 26.4161165,5.5963074 26.4505303,3.99959238 L26.4505303,3.99959238 C26.4619447,3.51418295 26.9309596,2.99788994 27.9586013,2.86545978 L27.9586013,2.86545978 C28.4674816,2.80033569 29.8724818,2.74964633 31.463691,3.47138233 L31.463691,3.47138233 L32.0884194,0.600047956 C31.2430683,0.297925908 30.1597172,0.00721736003 28.8131522,0 L28.8131522,0 L28.7076962,0 Z M38.0953192,0.247572234 C37.4124963,0.247572234 36.8370033,0.638484594 36.5819669,1.2405467 L36.5819669,1.2405467 L31.2466459,13.7883467 L34.979684,13.7883467 L35.7212828,11.7651361 L40.2819541,11.7651361 L40.7119554,13.7883467 L44,13.7883467 L41.1296904,0.247572234 L38.0953192,0.247572234 Z M38.6162954,3.90610239 L39.693343,8.99031291 L36.7444951,8.99031291 L38.6162954,3.90610239 Z M18.2314409,0.247572234 L15.2902594,13.7883467 L18.8459474,13.7883467 L21.7859364,0.247572234 L18.2314409,0.247572234 Z M12.9710805,0.247572234 L9.27058222,9.46346961 L7.77358491,1.62776645 C7.59827931,0.752787436 6.90438264,0.247572234 6.13382171,0.247572234 L6.13382171,0.247572234 L0.0838195835,0.247572234 L0,0.64016305 C1.24162017,0.906366143 2.65292389,1.33521161 3.50747476,1.79242297 L3.50747476,1.79242297 C4.03083607,2.0723894 4.18007581,2.31660472 4.35214447,2.98194461 L4.35214447,2.98194461 L7.18701819,13.7883467 L10.9450999,13.7883467 L16.7054815,0.247572234 L12.9710805,0.247572234 Z" id="path-1"></path>
    </defs>
    <g id="img_visa" stroke="none" stroke-width="1" fill="none" fill-rule="evenodd">
        <g id="Icon/Card-Scheme/Visa" transform="translate(0.000000, 7.000000)">
            <mask id="mask-2" fill="white">
                <use xlink:href="#path-1"></use>
            </mask>
            <g id="Clip-2"></g>
            <path d="M28.7076962,0 C25.2227097,0.0187987052 22.7743941,1.8540223 22.7546318,4.4754346 L22.7546318,4.4754346 C22.7314622,6.42596811 24.519954,7.51276825 25.8677116,8.16098789 L25.8677116,8.16098789 C27.2520976,8.82464932 27.716683,9.25047356 27.711572,9.84363985 L27.711572,9.84363985 C27.7010094,10.7525237 26.6064142,11.1530032 25.5833724,11.1686129 L25.5833724,11.1686129 C23.7959027,11.1961396 22.7585502,10.6927707 21.9315984,10.3132718 L21.9315984,10.3132718 L21.2881298,13.280446 C22.1181481,13.6560844 23.6516036,13.9835511 25.2416202,14 L25.2416202,14 C28.9770433,14 31.4197368,12.1827359 31.431492,9.36679055 L31.431492,9.36679055 C31.4471656,5.79352596 26.4161165,5.5963074 26.4505303,3.99959238 L26.4505303,3.99959238 C26.4619447,3.51418295 26.9309596,2.99788994 27.9586013,2.86545978 L27.9586013,2.86545978 C28.4674816,2.80033569 29.8724818,2.74964633 31.463691,3.47138233 L31.463691,3.47138233 L32.0884194,0.600047956 C31.2430683,0.297925908 30.1597172,0.00721736003 28.8131522,0 L28.8131522,0 L28.7076962,0 Z M38.0953192,0.247572234 C37.4124963,0.247572234 36.8370033,0.638484594 36.5819669,1.2405467 L36.5819669,1.2405467 L31.2466459,13.7883467 L34.979684,13.7883467 L35.7212828,11.7651361 L40.2819541,11.7651361 L40.7119554,13.7883467 L44,13.7883467 L41.1296904,0.247572234 L38.0953192,0.247572234 Z M38.6162954,3.90610239 L39.693343,8.99031291 L36.7444951,8.99031291 L38.6162954,3.90610239 Z M18.2314409,0.247572234 L15.2902594,13.7883467 L18.8459474,13.7883467 L21.7859364,0.247572234 L18.2314409,0.247572234 Z M12.9710805,0.247572234 L9.27058222,9.46346961 L7.77358491,1.62776645 C7.59827931,0.752787436 6.90438264,0.247572234 6.13382171,0.247572234 L6.13382171,0.247572234 L0.0838195835,0.247572234 L0,0.64016305 C1.24162017,0.906366143 2.65292389,1.33521161 3.50747476,1.79242297 L3.50747476,1.79242297 C4.03083607,2.0723894 4.18007581,2.31660472 4.35214447,2.98194461 L4.35214447,2.98194461 L7.18701819,13.7883467 L10.9450999,13.7883467 L16.7054815,0.247572234 L12.9710805,0.247572234 Z" id="Fill-1" fill="#1434CB" mask="url(#mask-2)"></path>
        </g>
    </g>
</svg>