<svg width="48" height="30" viewBox="0 0 48 30" fill="none" xmlns="http://www.w3.org/2000/svg">
<g clip-path="url(#clip0_50_5)">
<path d="M1.60776 29.6219C0.929789 29.6219 0.378113 29.0703 0.378113 28.3923V1.60782C0.378113 0.92985 0.9296 0.378174 1.60776 0.378174H45.8748C46.5527 0.378174 47.1044 0.92985 47.1044 1.60782V28.3923C47.1044 29.0703 46.5527 29.6219 45.8748 29.6219H1.60776Z" fill="white"/>
<path d="M45.8746 0.756239C46.3442 0.756239 46.7261 1.13814 46.7261 1.60776V28.3922C46.7261 28.8619 46.3442 29.2438 45.8746 29.2438H1.60776C1.13814 29.2438 0.756239 28.8619 0.756239 28.3922V1.60776C0.756239 1.13814 1.13814 0.756239 1.60776 0.756239H45.8746ZM45.8746 0H1.60776C0.723532 0 0 0.723532 0 1.60776V28.3922C0 29.2765 0.723532 30 1.60776 30H45.8746C46.7588 30 47.4824 29.2765 47.4824 28.3922V1.60776C47.4824 0.723532 46.7588 0 45.8746 0Z" fill="#004A97"/>
<path d="M7.94863 21.5591C7.94863 22.1265 8.35417 22.1924 8.71489 22.1924C10.3064 22.1924 10.8286 20.9921 10.8286 19.8946C10.8286 18.5171 9.94491 17.523 8.52356 17.523C8.22088 17.523 8.08154 17.5446 7.94863 17.5525V21.5591ZM7.22661 18.1046C7.22661 17.4421 6.88063 17.4858 6.54959 17.4788V17.2875C6.83658 17.3015 7.13095 17.3015 7.4187 17.3015C7.72781 17.3015 8.14771 17.2875 8.69315 17.2875C10.6004 17.2875 11.6395 18.561 11.6395 19.8653C11.6395 20.5951 11.2122 22.4288 8.60448 22.4288C8.2292 22.4288 7.88265 22.4142 7.53667 22.4142C7.20544 22.4142 6.88082 22.421 6.54978 22.4288V22.2372C6.99123 22.1926 7.20544 22.1781 7.2268 21.6774L7.22661 18.1046Z" fill="#231F20"/>
<path d="M12.6853 17.9281C12.4934 17.9281 12.3244 17.7513 12.3244 17.56C12.3244 17.3755 12.5014 17.2057 12.6853 17.2057C12.8765 17.2057 13.0464 17.3607 13.0464 17.56C13.0464 17.7591 12.884 17.9281 12.6853 17.9281ZM11.8975 22.2369H12.037C12.2431 22.2369 12.3908 22.2369 12.3908 21.9932V19.9975C12.3908 19.6739 12.2806 19.6291 12.0076 19.4822V19.3646C12.3537 19.2606 12.7666 19.1216 12.7957 19.0993C12.8475 19.0698 12.8912 19.0621 12.9287 19.0621C12.9648 19.0621 12.9799 19.1063 12.9799 19.1659V21.9934C12.9799 22.2371 13.1423 22.2371 13.3487 22.2371H13.4733V22.4287C13.2228 22.4287 12.9646 22.4141 12.7005 22.4141C12.4352 22.4141 12.17 22.4209 11.8975 22.4287V22.2369Z" fill="#231F20"/>
<path d="M14.1732 20.0418C14.1732 19.7695 14.0919 19.6962 13.7463 19.5559V19.416C14.0625 19.313 14.3642 19.2167 14.7181 19.0619C14.7404 19.0619 14.7618 19.0766 14.7618 19.1354V19.6143C15.1823 19.3128 15.5434 19.0619 16.0376 19.0619C16.6628 19.0619 16.8836 19.5187 16.8836 20.0932V21.9931C16.8836 22.2368 17.046 22.2368 17.2521 22.2368H17.385V22.4283C17.1264 22.4283 16.8689 22.4137 16.604 22.4137C16.3387 22.4137 16.0733 22.4205 15.808 22.4283V22.2368H15.941C16.1474 22.2368 16.2939 22.2368 16.2939 21.9931V20.0862C16.2939 19.6657 16.0374 19.4599 15.6171 19.4599C15.3811 19.4599 15.0055 19.651 14.7618 19.8136V21.9929C14.7618 22.2366 14.9246 22.2366 15.1308 22.2366H15.2632V22.4281C15.0055 22.4281 14.7476 22.4135 14.482 22.4135C14.2173 22.4135 13.9519 22.4203 13.687 22.4281V22.2366H13.8199C14.026 22.2366 14.1731 22.2366 14.1731 21.9929L14.1732 20.0418Z" fill="#231F20"/>
<path d="M19.2491 20.1599C19.4329 20.1599 19.4544 20.0641 19.4544 19.9754C19.4544 19.6005 19.2262 19.2984 18.8135 19.2984C18.3647 19.2984 18.0552 19.6293 17.9669 20.1601L19.2491 20.1599ZM17.945 20.3959C17.9299 20.4621 17.9299 20.5723 17.945 20.823C17.9883 21.5225 18.4386 22.0969 19.0272 22.0969C19.4329 22.0969 19.7499 21.8759 20.0218 21.6038L20.1245 21.7068C19.7855 22.156 19.366 22.5393 18.7625 22.5393C17.5911 22.5393 17.3553 21.4043 17.3553 20.9332C17.3553 19.4894 18.3274 19.0619 18.8424 19.0619C19.4397 19.0619 20.0808 19.4376 20.0878 20.2184C20.0878 20.2632 20.0878 20.3068 20.0808 20.3513L20.0142 20.3957L17.945 20.3959Z" fill="#231F20"/>
<path d="M20.2578 22.237H20.4568C20.6623 22.237 20.8098 22.237 20.8098 21.9933V19.9241C20.8098 19.6962 20.5376 19.6512 20.427 19.5923V19.4822C20.9646 19.2538 21.2594 19.0621 21.3267 19.0621C21.3698 19.0621 21.3919 19.0843 21.3919 19.1584V19.8214H21.4074C21.591 19.5342 21.9009 19.0623 22.3501 19.0623C22.534 19.0623 22.7696 19.1873 22.7696 19.4527C22.7696 19.6516 22.6303 19.8292 22.4242 19.8292C22.195 19.8292 22.195 19.6514 21.937 19.6514C21.8118 19.6514 21.3993 19.8214 21.3993 20.2636V21.9935C21.3993 22.2372 21.5466 22.2372 21.7528 22.2372H22.165V22.4287C21.7598 22.421 21.4515 22.4142 21.1346 22.4142C20.8325 22.4142 20.523 22.421 20.2579 22.4287L20.2578 22.237Z" fill="#231F20"/>
<path d="M23.0933 21.4044C23.1895 21.8905 23.4835 22.3036 24.0221 22.3036C24.456 22.3036 24.618 22.0381 24.618 21.7806C24.618 20.9109 23.0127 21.1911 23.0127 20.0054C23.0127 19.5923 23.3443 19.0621 24.1547 19.0621C24.39 19.0621 24.7067 19.1289 24.9937 19.2762L25.0453 20.0269H24.8759C24.8024 19.5631 24.5449 19.2981 24.073 19.2981C23.7784 19.2981 23.4988 19.4673 23.4988 19.784C23.4988 20.6463 25.2071 20.3806 25.2071 21.5371C25.2071 22.023 24.8171 22.5393 23.9403 22.5393C23.6459 22.5393 23.2993 22.4359 23.0422 22.2886L22.9607 21.4415L23.0933 21.4044Z" fill="#231F20"/>
<path d="M31.8583 18.6201H31.6745C31.5344 17.759 30.923 17.4126 30.0985 17.4126C29.2504 17.4126 28.0207 17.9792 28.0207 19.7471C28.0207 21.2354 29.0817 22.3036 30.2157 22.3036C30.9443 22.3036 31.5495 21.8026 31.6966 21.0287L31.866 21.0728L31.6966 22.1485C31.3873 22.3402 30.5547 22.5395 30.0679 22.5395C28.345 22.5395 27.255 21.4271 27.255 19.7698C27.255 18.2596 28.603 17.1763 30.0467 17.1763C30.643 17.1763 31.2174 17.3684 31.7845 17.5674L31.8583 18.6201Z" fill="#231F20"/>
<path d="M32.1241 22.237H32.2634C32.4704 22.237 32.6173 22.237 32.6173 21.9933V17.8917C32.6173 17.4126 32.5071 17.3978 32.2267 17.3167V17.1988C32.5213 17.1033 32.831 16.9709 32.9858 16.8819C33.0658 16.8384 33.1253 16.8008 33.1471 16.8008C33.1921 16.8008 33.2066 16.8456 33.2066 16.9046V21.9935C33.2066 22.2372 33.3689 22.2372 33.5749 22.2372H33.6995V22.4287C33.45 22.4287 33.1921 22.4142 32.9266 22.4142C32.6616 22.4142 32.3967 22.421 32.1237 22.4287V22.237H32.1241Z" fill="#231F20"/>
<path d="M36.8534 22.0232C36.8534 22.1563 36.9339 22.1633 37.0589 22.1633C37.1478 22.1633 37.2578 22.1563 37.3542 22.1563V22.3115C37.0374 22.3406 36.4331 22.4953 36.293 22.5397L36.2564 22.5172V21.9205C35.8149 22.2812 35.4755 22.5397 34.9518 22.5397C34.5544 22.5397 34.1421 22.2812 34.1421 21.6634V19.7771C34.1421 19.5852 34.113 19.4011 33.701 19.3648V19.2245C33.9663 19.2173 34.5544 19.1733 34.6505 19.1733C34.7323 19.1733 34.7323 19.2245 34.7323 19.3869V21.287C34.7323 21.5082 34.7323 22.1411 35.3731 22.1411C35.6232 22.1411 35.9546 21.95 36.2637 21.6927V19.7106C36.2637 19.5635 35.9104 19.4824 35.6457 19.409V19.2765C36.308 19.2317 36.7209 19.1731 36.7944 19.1731C36.8538 19.1731 36.8538 19.2243 36.8538 19.3056V22.0232H36.8534Z" fill="#231F20"/>
<path d="M38.3188 21.5961C38.3188 21.8759 38.5841 22.3476 39.0775 22.3476C39.8655 22.3476 40.1967 21.5742 40.1967 20.9181C40.1967 20.1228 39.5935 19.4601 39.0191 19.4601C38.7455 19.4601 38.5175 19.6371 38.3188 19.8066V21.5961ZM38.3188 19.5924C38.6134 19.3427 39.0113 19.0621 39.4163 19.0621C40.2709 19.0621 40.7864 19.8068 40.7864 20.6094C40.7864 21.574 40.0791 22.5395 39.0253 22.5395C38.4808 22.5395 38.1935 22.3622 38.0016 22.2811L37.7813 22.4505L37.6269 22.3697C37.6926 21.9353 37.7299 21.508 37.7299 21.0584V17.8917C37.7299 17.4126 37.6189 17.3978 37.3391 17.3167V17.1988C37.634 17.1033 37.9432 16.9709 38.0976 16.8819C38.1789 16.8384 38.2377 16.8008 38.2602 16.8008C38.3041 16.8008 38.3188 16.8456 38.3188 16.9046V19.5924Z" fill="#231F20"/>
<path d="M6.54146 26.7115H6.5978C6.74186 26.7115 6.89424 26.6918 6.89424 26.4831V24.3834C6.89424 24.1745 6.74186 24.1546 6.5978 24.1546H6.54146V24.0342C6.69762 24.0342 6.9383 24.0502 7.13511 24.0502C7.33532 24.0502 7.57543 24.0342 7.76392 24.0342V24.1546H7.70739C7.56389 24.1546 7.41113 24.1745 7.41113 24.3834V26.4831C7.41113 26.6918 7.5637 26.7115 7.70739 26.7115H7.76392V26.8319C7.57165 26.8319 7.33059 26.8164 7.13095 26.8164C6.93414 26.8164 6.69762 26.8319 6.54146 26.8319V26.7115Z" fill="#231F20"/>
<path d="M7.74653 26.8147L7.74672 26.7295H7.70815C7.56484 26.7295 7.3945 26.7045 7.39337 26.4831V24.3834C7.39431 24.1619 7.56465 24.1371 7.70815 24.1371H7.74672V24.0516C7.56182 24.0518 7.32946 24.0677 7.13511 24.0677C6.94473 24.0677 6.71426 24.0528 6.55905 24.0516V24.1371H6.59742C6.74035 24.1371 6.91107 24.1619 6.91107 24.3834V26.4831C6.91107 26.7045 6.74035 26.7295 6.59742 26.7295H6.55905V26.8147C6.71426 26.8134 6.94057 26.7987 7.13076 26.7987C7.32587 26.7987 7.55747 26.8138 7.74653 26.8147ZM7.76392 26.8492C7.56995 26.8492 7.33003 26.8331 7.13057 26.8331C6.93433 26.8331 6.69876 26.8492 6.54127 26.8492H6.52388V26.8321V26.7119V26.6943H6.54146H6.59742C6.74281 26.6907 6.87515 26.679 6.87648 26.4831V24.3834C6.87515 24.1872 6.743 24.1745 6.59742 24.1721H6.52388V24.1547V24.0168H6.54146C6.69876 24.0168 6.93906 24.0325 7.13511 24.0325C7.33438 24.0325 7.57449 24.0168 7.76392 24.0168H7.78169V24.0348V24.1721H7.76392H7.70815C7.56257 24.1745 7.42948 24.1874 7.42872 24.3834V26.4831C7.42948 26.679 7.56257 26.6907 7.70815 26.6943H7.78188V26.7119V26.8492H7.76392Z" fill="#231F20"/>
<path d="M10.5174 26.042L10.5253 26.0341V24.5317C10.5253 24.2027 10.2966 24.1547 10.1765 24.1547H10.0882V24.0344C10.2769 24.0344 10.4612 24.0505 10.6494 24.0505C10.8136 24.0505 10.9789 24.0344 11.1424 24.0344V24.1547H11.0829C10.914 24.1547 10.7255 24.1866 10.7255 24.6638V26.4873C10.7255 26.6278 10.7295 26.768 10.7492 26.8923H10.5968L8.53302 24.5912V26.243C8.53302 26.5918 8.6007 26.7117 8.90944 26.7117H8.97769V26.8321C8.80527 26.8321 8.63322 26.8164 8.4608 26.8164C8.28082 26.8164 8.09629 26.8321 7.91574 26.8321V26.7117H7.97189C8.24849 26.7117 8.33243 26.5232 8.33243 26.2035V24.5148C8.33243 24.2906 8.14753 24.1547 7.96792 24.1547H7.91593V24.0344C8.06793 24.0344 8.22448 24.0505 8.37648 24.0505C8.4971 24.0505 8.61337 24.0344 8.73361 24.0344L10.5174 26.042Z" fill="#231F20"/>
<path d="M10.5079 26.0341V26.0326L10.5047 26.0301L10.5079 26.0341ZM10.597 26.8741H10.7295C10.7116 26.7535 10.7083 26.6204 10.7083 26.4871V24.6636C10.7083 24.1827 10.9101 24.1371 11.0827 24.1367H11.1248V24.0514C10.967 24.0526 10.8087 24.0671 10.6494 24.0671C10.4658 24.0671 10.2873 24.0526 10.1062 24.0514L10.1058 24.1367H10.1767C10.3 24.1371 10.5427 24.1919 10.5427 24.5315L10.5374 26.0466L10.5295 26.0543L10.5159 26.0672L8.73342 24.0514C8.61431 24.0514 8.49842 24.0671 8.3761 24.0671C8.2292 24.0671 8.07871 24.0526 7.93332 24.0514L7.93256 24.1367H7.96811C8.15603 24.1371 8.34963 24.2806 8.34963 24.5152V26.2031C8.34963 26.524 8.2602 26.7287 7.97208 26.7299L7.93332 26.7287V26.8147C8.10688 26.8134 8.28573 26.7987 8.46079 26.7987C8.62792 26.7987 8.79486 26.8134 8.96029 26.8147V26.7299H8.90962C8.59427 26.7287 8.51619 26.5913 8.51581 26.2428V24.5462L10.597 26.8741ZM10.7492 26.9091L10.5841 26.9034L8.55003 24.6364V26.243C8.55495 26.5915 8.60788 26.6905 8.90962 26.6943H8.99546V26.7117V26.8492H8.97768C8.80432 26.8492 8.6317 26.8331 8.46079 26.8331C8.28138 26.8331 8.09723 26.8492 7.91555 26.8492H7.89796V26.8321V26.6943H7.91555H7.97208C8.23695 26.6928 8.31257 26.5226 8.3156 26.2033V24.5154C8.31484 24.3019 8.13977 24.1721 7.96829 24.1721H7.89815V24.1539V24.0168H7.91574C8.06887 24.0168 8.22579 24.0325 8.3761 24.0325C8.49558 24.0325 8.61148 24.0168 8.74665 24.0231L10.5079 26.0059V24.5318C10.5059 24.2135 10.2934 24.1747 10.1765 24.1723H10.0704V24.1541V24.017H10.0882C10.2777 24.017 10.462 24.0327 10.6494 24.0327C10.8123 24.0327 10.9766 24.017 11.1424 24.017H11.16V24.0344V24.1723H11.1424H11.0827C10.9171 24.1766 10.7475 24.1912 10.7426 24.6638V26.4873C10.7426 26.6276 10.7471 26.7675 10.7662 26.8892L10.7698 26.9093H10.7492V26.9091Z" fill="#231F20"/>
<path d="M11.7429 24.2346C11.4419 24.2346 11.4304 24.3071 11.37 24.5993H11.2498C11.2655 24.4872 11.2855 24.3749 11.298 24.2588C11.3141 24.1462 11.322 24.0342 11.322 23.9184H11.4183C11.4504 24.0386 11.5508 24.0342 11.6593 24.0342H13.7265C13.8352 24.0342 13.9352 24.0303 13.9435 23.91L14.0392 23.9265C14.0237 24.0342 14.0072 24.1426 13.9957 24.2511C13.988 24.3592 13.988 24.4672 13.988 24.5753L13.8673 24.62C13.8592 24.4717 13.8394 24.2346 13.5709 24.2346H12.9135V26.3669C12.9135 26.676 13.054 26.7115 13.2459 26.7115H13.3223V26.832C13.1659 26.832 12.8852 26.8164 12.6691 26.8164C12.4284 26.8164 12.1475 26.832 11.9911 26.832V26.7115H12.0675C12.2883 26.7115 12.4 26.6919 12.4 26.3752V24.2346H11.7429Z" fill="#231F20"/>
<path d="M13.3227 26.8492C13.1648 26.8492 12.8844 26.8333 12.6693 26.8333C12.4288 26.8333 12.1486 26.8492 11.9913 26.8492H11.9743V26.8322V26.6943H11.9913H12.0677C12.2885 26.6892 12.3774 26.6864 12.3825 26.3754V24.2521H11.7429V24.2349V24.2169H12.4172V26.3754C12.4172 26.6972 12.2876 26.7297 12.0677 26.7301H12.0083V26.8146C12.1664 26.8136 12.4365 26.7987 12.6691 26.7987C12.8778 26.7987 13.1455 26.8134 13.3043 26.8146V26.7301H13.2457C13.0519 26.7297 12.8958 26.682 12.8958 26.3671V24.2167H13.5705C13.8394 24.2177 13.8749 24.4462 13.8834 24.5954L13.97 24.5634C13.97 24.4587 13.9704 24.354 13.9777 24.2487C13.9895 24.1451 14.004 24.0433 14.0191 23.9405L13.9583 23.9305C13.9396 24.0471 13.8267 24.0534 13.7261 24.0519H11.6593H11.6383C11.5442 24.052 11.4413 24.0473 11.4052 23.9356H11.339C11.3383 24.0464 11.3307 24.1539 11.3156 24.2608C11.3037 24.3708 11.2853 24.4767 11.2708 24.5829H11.3564C11.4092 24.3033 11.4432 24.2129 11.7429 24.2169V24.2349V24.2521C11.446 24.2579 11.4527 24.3075 11.3872 24.6037L11.3844 24.6173H11.3702H11.2299L11.2322 24.5965C11.2485 24.4846 11.2689 24.3723 11.2804 24.2558C11.2971 24.1447 11.3048 24.0335 11.3048 23.9186V23.9008H11.322H11.4321L11.4351 23.9135C11.4621 24.0144 11.5362 24.0152 11.6385 24.0171H11.6595H13.7265C13.838 24.0154 13.9195 24.0138 13.9263 23.9089L13.9278 23.89L13.946 23.8938L14.0592 23.9118L14.0564 23.9293C14.0405 24.0369 14.0248 24.1449 14.0129 24.2523C14.0053 24.3595 14.0053 24.4674 14.0053 24.5757V24.5878L13.9936 24.5924L13.852 24.6444L13.8509 24.6211C13.8399 24.4702 13.8244 24.2523 13.5711 24.2523H12.9311V26.3673C12.9353 26.6696 13.0551 26.6907 13.2461 26.6945H13.3399V26.7119V26.8494L13.3227 26.8492Z" fill="#231F20"/>
<path d="M14.1672 26.7115H14.2237C14.3676 26.7115 14.5203 26.6918 14.5203 26.4831V24.3834C14.5203 24.1745 14.3676 24.1546 14.2237 24.1546H14.1672V24.0342C14.4111 24.0342 14.8287 24.0502 15.1647 24.0502C15.5019 24.0502 15.9183 24.0342 16.1909 24.0342C16.1839 24.2064 16.1877 24.4717 16.1994 24.6477L16.0786 24.6794C16.0593 24.4189 16.0113 24.211 15.5902 24.211H15.0338V25.2604H15.5099C15.7504 25.2604 15.8027 25.1247 15.8266 24.908H15.9468C15.9389 25.0646 15.9347 25.2209 15.9347 25.3771C15.9347 25.5296 15.9389 25.6818 15.9468 25.8338L15.8266 25.8578C15.8029 25.6177 15.7908 25.4614 15.514 25.4614H15.0338V26.3948C15.0338 26.6557 15.2654 26.6557 15.522 26.6557C16.003 26.6557 16.2153 26.6234 16.3357 26.1672L16.4474 26.1948C16.3953 26.4076 16.3474 26.6194 16.3117 26.8321C16.0549 26.8321 15.594 26.8166 15.2339 26.8166C14.8724 26.8166 14.3958 26.8321 14.167 26.8321L14.1672 26.7115Z" fill="#231F20"/>
<path d="M16.2966 26.8146C16.3315 26.6119 16.3773 26.4096 16.4265 26.2077L16.3476 26.1878C16.2276 26.6361 15.995 26.6762 15.522 26.6731C15.2694 26.6731 15.017 26.6731 15.0155 26.3947V25.4439H15.5139C15.7939 25.441 15.822 25.6097 15.8421 25.8377L15.9287 25.8201C15.9209 25.6723 15.9169 25.524 15.9169 25.3771C15.9169 25.2266 15.9209 25.0763 15.9287 24.9251H15.8421C15.8196 25.1344 15.754 25.2805 15.5099 25.2781H15.0157V24.193H15.5904C16.0073 24.1898 16.0763 24.4056 16.0945 24.6578L16.1807 24.6341C16.1737 24.5211 16.1691 24.3757 16.1691 24.242C16.1691 24.1734 16.1708 24.1084 16.1733 24.0516C15.9011 24.0528 15.4946 24.0673 15.165 24.0673C14.8357 24.0673 14.4304 24.0528 14.185 24.0516V24.1369H14.2237C14.3663 24.1373 14.5368 24.1619 14.5377 24.3836V26.4833C14.5368 26.7047 14.3663 26.7289 14.2237 26.7302H14.185V26.8147C14.4183 26.814 14.8816 26.7989 15.2337 26.7989C15.5874 26.7987 16.0383 26.8138 16.2966 26.8146ZM16.3115 26.8492C16.0544 26.8492 15.5931 26.8325 15.2337 26.8325C14.8726 26.8325 14.3961 26.8492 14.1672 26.8492H14.1504V26.8321V26.7117V26.6943H14.1672H14.2237C14.3687 26.6919 14.5007 26.679 14.5026 26.4831V24.3834C14.5009 24.1876 14.3687 24.1745 14.2237 24.1721H14.1505V24.1547V24.0168H14.1674C14.4122 24.0168 14.8293 24.0325 15.165 24.0325C15.5019 24.0325 15.9181 24.0168 16.1911 24.0168H16.2088L16.2083 24.0354C16.2056 24.0953 16.2041 24.1666 16.2041 24.242C16.2041 24.3806 16.2083 24.5324 16.2162 24.6464L16.217 24.6606L16.2034 24.6648L16.0625 24.7016L16.0619 24.6808C16.0383 24.4209 16.0033 24.2316 15.5906 24.2278H15.0505L15.0501 25.2429H15.5101C15.7411 25.2404 15.7823 25.1225 15.8097 24.9064L15.8107 24.8903H15.8266H15.9648L15.9644 24.9085C15.9566 25.065 15.9519 25.221 15.9519 25.3771C15.9519 25.5288 15.9566 25.681 15.9644 25.8331L15.9648 25.8477L15.9502 25.8509L15.8107 25.8787L15.8097 25.8598C15.7819 25.615 15.7802 25.4809 15.5142 25.4781H15.0505V26.3947C15.051 26.6382 15.2611 26.6368 15.5222 26.6382C16.0048 26.6353 16.1981 26.6117 16.3189 26.1621L16.323 26.1458L16.3399 26.1487L16.4682 26.182L16.4646 26.1984C16.4126 26.4105 16.3648 26.6227 16.3285 26.8346L16.3255 26.8488H16.3115V26.8492Z" fill="#231F20"/>
<path d="M17.5018 25.3884H17.6977C18.0991 25.3884 18.315 25.2366 18.315 24.7634C18.315 24.407 18.0866 24.1786 17.7294 24.1786C17.6092 24.1786 17.558 24.1909 17.5018 24.1947V25.3884ZM16.9889 24.4586C16.9889 24.1665 16.8284 24.1544 16.704 24.1544H16.6316V24.0342C16.76 24.0342 17.0084 24.0502 17.253 24.0502C17.4929 24.0502 17.6858 24.0342 17.8981 24.0342C18.4025 24.0342 18.8523 24.1703 18.8523 24.7399C18.8523 25.1005 18.6116 25.3205 18.2951 25.4455L18.9801 26.471C19.0926 26.6404 19.1722 26.688 19.369 26.7116V26.8321C19.2364 26.8321 19.1081 26.8166 18.9763 26.8166C18.8521 26.8166 18.7231 26.8321 18.5995 26.8321C18.2908 26.4275 18.0259 25.9947 17.7656 25.533H17.5014V26.3914C17.5014 26.6999 17.6455 26.7116 17.8291 26.7116H17.9017V26.8321C17.6727 26.8321 17.4411 26.8166 17.2122 26.8166C17.0199 26.8166 16.8314 26.8321 16.631 26.8321V26.7116H16.7034C16.8522 26.7116 16.9883 26.6438 16.9883 26.4955V24.4586H16.9889Z" fill="#231F20"/>
<path d="M17.6977 25.3716C18.0943 25.3676 18.2944 25.23 18.2983 24.7645C18.2959 24.4142 18.0785 24.1972 17.7295 24.1956C17.6213 24.1956 17.5703 24.2055 17.519 24.2106V25.3716H17.6977ZM17.5016 25.4056H17.4839V24.1784L17.4992 24.1773C17.554 24.1728 17.6081 24.1618 17.7293 24.1618C18.0943 24.1618 18.332 24.3991 18.3324 24.7645C18.3312 25.2428 18.1019 25.4056 17.6975 25.4058H17.5016V25.4056ZM17.5016 25.5157H17.7756L17.7805 25.5247C18.0414 25.9853 18.3048 26.418 18.5999 26.8149C18.7218 26.8149 18.8508 26.7988 18.9755 26.7988C19.1035 26.7988 19.2272 26.8128 19.3516 26.8147V26.7268C19.1638 26.7039 19.0756 26.647 18.9661 26.481L18.2683 25.4378L18.2881 25.4298C18.602 25.3062 18.8347 25.092 18.8347 24.7398C18.8345 24.1837 18.4019 24.0546 17.8981 24.052C17.6871 24.052 17.4945 24.068 17.253 24.068C17.0176 24.068 16.7798 24.0531 16.6486 24.052V24.1372H16.7038C16.8282 24.1376 17.0052 24.1582 17.0052 24.4592V26.4961C17.0052 26.657 16.8545 26.73 16.7038 26.7306H16.6486V26.8151C16.8412 26.8143 17.0243 26.7992 17.2126 26.7992C17.4364 26.7992 17.6627 26.8143 17.8843 26.8151V26.7306H17.8295C17.647 26.7302 17.4839 26.7077 17.4839 26.3912V25.5164H17.5016V25.5157ZM19.3692 26.8491C19.2347 26.8491 19.1073 26.833 18.9754 26.833C18.8532 26.833 18.725 26.8491 18.5855 26.8423C18.2781 26.4386 18.0144 26.0085 17.7555 25.551H17.5186V26.3904C17.5232 26.6922 17.644 26.6899 17.8293 26.6941H17.9193V26.7115V26.8489H17.9015C17.6724 26.8489 17.4396 26.8328 17.2124 26.8328C17.021 26.8328 16.8326 26.8489 16.6314 26.8489H16.614V26.8319V26.6941H16.6314H16.7038C16.8479 26.6931 16.9698 26.6302 16.9704 26.4954V24.4586C16.9674 24.1745 16.8282 24.176 16.7038 24.172H16.614V24.1546V24.0166H16.6314C16.7611 24.0166 17.0086 24.0323 17.2528 24.0323C17.4922 24.0323 17.6843 24.0166 17.8979 24.0166C18.4033 24.0177 18.8682 24.1569 18.8695 24.7392C18.8695 25.1009 18.6303 25.327 18.3214 25.4531L18.9945 26.4613C19.1066 26.6275 19.1763 26.6691 19.3714 26.6943L19.386 26.6965V26.7116V26.8491H19.3692Z" fill="#231F20"/>
<path d="M22.0903 26.042L22.0973 26.0341V24.5317C22.0973 24.2027 21.8697 24.1547 21.7492 24.1547H21.6613V24.0344C21.8498 24.0344 22.0334 24.0505 22.2225 24.0505C22.3871 24.0505 22.5503 24.0344 22.7157 24.0344V24.1547H22.6554C22.487 24.1547 22.2987 24.1866 22.2987 24.6638V26.4873C22.2987 26.6278 22.3026 26.768 22.3223 26.8923H22.1707L20.1067 24.5912V26.243C20.1067 26.5918 20.1744 26.7117 20.4829 26.7117H20.5512V26.8321C20.3789 26.8321 20.2063 26.8164 20.0341 26.8164C19.853 26.8164 19.669 26.8321 19.4888 26.8321V26.7117H19.5446C19.8214 26.7117 19.9059 26.5232 19.9059 26.2035V24.5148C19.9059 24.2906 19.7214 24.1547 19.541 24.1547H19.4888V24.0344C19.6405 24.0344 19.798 24.0505 19.95 24.0505C20.0691 24.0505 20.1859 24.0344 20.3063 24.0344L22.0903 26.042Z" fill="#231F20"/>
<path d="M22.0803 26.0341V26.0329L22.0775 26.0299L22.0803 26.0341ZM22.1707 26.8741H22.3019C22.2843 26.7542 22.2807 26.6203 22.2807 26.487V24.6636C22.2811 24.1826 22.4837 24.138 22.6552 24.1367H22.6974V24.0514C22.5395 24.0525 22.3813 24.0671 22.2223 24.0671C22.0381 24.0671 21.8595 24.0525 21.6782 24.0514V24.1367H21.7491C21.8725 24.1378 22.1153 24.1919 22.1153 24.5314L22.1094 26.0465L22.1022 26.0543L22.0896 26.0675L20.3063 24.0514C20.187 24.0514 20.0708 24.0671 19.9498 24.0671C19.8012 24.0671 19.6514 24.0525 19.5057 24.0514V24.1367H19.5408C19.7293 24.1378 19.9222 24.28 19.9222 24.5146V26.2023C19.9222 26.5239 19.8316 26.7287 19.5442 26.73L19.5055 26.7296V26.8149C19.6787 26.8137 19.8571 26.7988 20.033 26.7988C20.201 26.7988 20.3676 26.8136 20.5334 26.8149V26.7302H20.4825C20.1672 26.7298 20.0885 26.5922 20.0876 26.243V24.5471L22.1707 26.8741ZM22.3223 26.909L22.1576 26.9034L20.1233 24.6365V26.2426C20.1281 26.5918 20.1808 26.6903 20.4831 26.6943H20.568V26.7116V26.8491H20.5506C20.3774 26.8491 20.2054 26.8325 20.0335 26.8325C19.8547 26.8325 19.6694 26.8491 19.4888 26.8491H19.4709V26.8321V26.6943H19.4888H19.5446C19.8093 26.6933 19.8851 26.5226 19.8878 26.2023V24.5146C19.8874 24.3009 19.7125 24.1718 19.5412 24.1718H19.4709V24.1544V24.0166H19.4888C19.642 24.0166 19.7987 24.0323 19.95 24.0323C20.0677 24.0323 20.1838 24.0166 20.3183 24.0217L22.0801 26.0055V24.5314C22.0792 24.213 21.8655 24.1737 21.7491 24.1718H21.6434V24.1544V24.0166H21.6608C21.85 24.0166 22.0349 24.0323 22.2223 24.0323C22.3856 24.0323 22.5495 24.0166 22.715 24.0166H22.7327V24.0346V24.1718H22.715H22.6554C22.49 24.1758 22.3196 24.1907 22.3157 24.6634V26.4869C22.3157 26.6271 22.3193 26.7661 22.3397 26.8892L22.3418 26.9088L22.3223 26.909Z" fill="#231F20"/>
<path d="M23.9452 24.4832H23.9368L23.5644 25.6175H24.3133L23.9452 24.4832ZM23.36 26.2588C23.3196 26.3948 23.2714 26.4999 23.2714 26.571C23.2714 26.6918 23.4402 26.7116 23.572 26.7116H23.6168V26.8319C23.4559 26.8232 23.2921 26.8164 23.1309 26.8164C22.9866 26.8164 22.8431 26.8232 22.6985 26.8319V26.7116H22.7229C22.8789 26.7116 23.0116 26.6192 23.0711 26.4507L23.7124 24.6117C23.7648 24.4631 23.837 24.2629 23.8614 24.1143C23.9888 24.0705 24.1499 23.9907 24.2257 23.9421C24.2382 23.9381 24.2456 23.934 24.2577 23.934C24.2698 23.934 24.2772 23.934 24.286 23.9466C24.2979 23.9784 24.3097 24.0145 24.322 24.0465L25.0599 26.1429C25.1079 26.2828 25.1555 26.4309 25.2068 26.5519C25.2557 26.6644 25.3399 26.7118 25.4726 26.7118H25.4966V26.8321C25.316 26.8234 25.1353 26.8166 24.9436 26.8166C24.7472 26.8166 24.546 26.8234 24.3418 26.8321V26.7118H24.386C24.4776 26.7118 24.6349 26.6957 24.6349 26.5955C24.6349 26.5439 24.5987 26.4356 24.5539 26.3068L24.3978 25.8421H23.488L23.36 26.2588Z" fill="#231F20"/>
<path d="M23.5878 25.6H24.2896L23.9408 24.526L23.5878 25.6ZM23.54 25.6348L23.9236 24.4655H23.937H23.9452H23.9573L24.338 25.6348H23.54ZM24.3594 26.8134C24.5575 26.8064 24.7523 26.7987 24.9438 26.7987C25.1296 26.7987 25.3043 26.8066 25.4786 26.8134V26.7295H25.4728C25.3353 26.7304 25.2408 26.6764 25.1916 26.5582C25.1395 26.4372 25.0907 26.2884 25.0434 26.1479L24.3055 24.0516C24.2934 24.0197 24.2819 23.9838 24.2715 23.9554C24.2675 23.9514 24.2685 23.9514 24.2652 23.9514H24.2577C24.2496 23.9514 24.2448 23.9539 24.2344 23.9565C24.1575 24.0066 23.9966 24.0857 23.8775 24.1169C23.8531 24.2687 23.7807 24.4691 23.7287 24.6175L23.0876 26.4567C23.0265 26.631 22.8857 26.73 22.7229 26.7297H22.7163V26.8136C22.8539 26.8066 22.9925 26.7989 23.1316 26.7989C23.2867 26.7989 23.4447 26.8068 23.598 26.8136V26.7297H23.5723C23.4415 26.728 23.2591 26.7136 23.2545 26.5716C23.2549 26.4922 23.3041 26.3897 23.3432 26.2542L23.3604 26.2593L23.3432 26.2538L23.4752 25.8254H24.4099L24.5704 26.3015C24.6154 26.4304 24.6519 26.5372 24.6519 26.5956C24.646 26.7185 24.4772 26.7274 24.3864 26.7297H24.3598V26.8134H24.3594ZM25.4953 26.8492C25.3153 26.8414 25.1345 26.8325 24.9438 26.8325C24.7473 26.8325 24.5475 26.8414 24.3429 26.8492L24.3244 26.8501V26.832V26.6934H24.342H24.3862C24.4791 26.6934 24.6167 26.6726 24.6171 26.5952C24.618 26.5497 24.5821 26.4398 24.5381 26.3122L24.3855 25.8589H23.5014L23.3769 26.2638C23.3364 26.3999 23.2878 26.5058 23.2886 26.571C23.2899 26.669 23.4396 26.6932 23.5725 26.6932H23.6342V26.7113V26.8497L23.616 26.8488C23.4557 26.841 23.2922 26.8321 23.1318 26.8321C22.9887 26.8321 22.8437 26.841 22.7002 26.8488L22.6815 26.8497V26.8316V26.693H22.6987H22.7231C22.8721 26.6926 22.9967 26.6075 23.0545 26.4448L23.6964 24.605C23.7482 24.4568 23.821 24.2573 23.8555 24.0972C23.9813 24.0545 24.1425 23.9737 24.2197 23.9253C24.2308 23.9214 24.242 23.9161 24.2581 23.9161C24.2679 23.9155 24.2894 23.9182 24.3025 23.939C24.3138 23.9719 24.3265 24.0078 24.3386 24.0401L25.0765 26.1364C25.1238 26.2767 25.1716 26.4247 25.2242 26.5434C25.2707 26.6503 25.3442 26.6924 25.473 26.6928H25.5134V26.711V26.8493L25.4953 26.8492Z" fill="#231F20"/>
<path d="M25.6728 24.2346C25.3722 24.2346 25.3601 24.3071 25.2998 24.5993H25.1792C25.195 24.4872 25.2155 24.3749 25.2279 24.2588C25.2436 24.1462 25.2514 24.0342 25.2514 23.9184H25.3484C25.3798 24.0386 25.4802 24.0342 25.5883 24.0342H27.6566C27.7644 24.0342 27.8644 24.0303 27.8725 23.91L27.9684 23.9265C27.9534 24.0342 27.9375 24.1426 27.9249 24.2511C27.916 24.3592 27.916 24.4672 27.916 24.5753L27.7963 24.62C27.7891 24.4717 27.7691 24.2346 27.5001 24.2346H26.8429V26.3669C26.8429 26.676 26.9834 26.7115 27.1753 26.7115H27.2518V26.832C27.0955 26.832 26.8153 26.8164 26.5983 26.8164C26.3583 26.8164 26.0768 26.832 25.9207 26.832V26.7115H25.997C26.2179 26.7115 26.3296 26.6919 26.3296 26.3752V24.2346H25.6728Z" fill="#231F20"/>
<path d="M27.2518 26.8492C27.0943 26.8492 26.8134 26.8333 26.5981 26.8333C26.3587 26.8333 26.0779 26.8492 25.921 26.8492H25.9033V26.8322V26.6943H25.921H25.9972C26.2182 26.6892 26.3069 26.6864 26.3122 26.3754L26.3118 24.2521H25.6728V24.2349V24.2169H26.347V26.3754C26.347 26.6972 26.2173 26.7289 25.997 26.7297H25.9379V26.815C26.0963 26.8136 26.3655 26.7989 26.5979 26.7989C26.8073 26.7989 27.0754 26.8136 27.2339 26.815V26.7297H27.1749C26.9818 26.7289 26.8257 26.6826 26.8253 26.3671V24.2167H27.4997C27.7689 24.2177 27.8041 24.4462 27.8116 24.5954L27.8988 24.5634C27.8988 24.4587 27.8994 24.354 27.9075 24.249C27.9183 24.1458 27.9334 24.0432 27.9481 23.9409L27.8876 23.9303C27.8693 24.0469 27.756 24.0534 27.6564 24.0517H25.5881H25.5677C25.4731 24.0526 25.3709 24.0471 25.3346 23.935H25.2692C25.2682 24.046 25.2603 24.1538 25.2446 24.2606C25.2336 24.3712 25.2143 24.4772 25.199 24.5827H25.285C25.3378 24.3031 25.3724 24.2124 25.6728 24.2167V24.2347V24.2521C25.3756 24.2572 25.3822 24.3073 25.3166 24.6035L25.3138 24.6171H25.2998H25.1591L25.1616 24.5973C25.1784 24.4846 25.1981 24.3721 25.2098 24.2566C25.2262 24.1447 25.2336 24.0333 25.2336 23.9186V23.9008H25.2514H25.3608L25.3642 23.9135C25.3922 24.0144 25.4654 24.0152 25.5679 24.0171H25.5883H27.6566C27.7676 24.0154 27.8485 24.0138 27.8555 23.9093L27.8561 23.89L27.8748 23.8938L27.9886 23.9118L27.9858 23.9293C27.9693 24.0369 27.954 24.1449 27.9421 24.2523C27.9338 24.3595 27.9338 24.4676 27.9338 24.5757V24.5878L27.922 24.5924L27.7802 24.6444L27.7797 24.6211C27.7691 24.4702 27.7534 24.2523 27.5001 24.2523H26.8601V26.3673C26.8643 26.6696 26.9843 26.6907 27.1753 26.6945H27.2686V26.7119V26.8494L27.2518 26.8492Z" fill="#231F20"/>
<path d="M28.1166 26.7115H28.1727C28.3172 26.7115 28.469 26.6918 28.469 26.4831V24.3834C28.469 24.1745 28.3174 24.1546 28.1727 24.1546H28.1166V24.0342C28.2731 24.0342 28.513 24.0502 28.7093 24.0502C28.9102 24.0502 29.1507 24.0342 29.3396 24.0342V24.1546H29.2833C29.1384 24.1546 28.9861 24.1745 28.9861 24.3834V26.4831C28.9861 26.6918 29.1384 26.7115 29.2833 26.7115H29.3396V26.8319C29.147 26.8319 28.9063 26.8164 28.7061 26.8164C28.5093 26.8164 28.2731 26.8319 28.1168 26.8319L28.1166 26.7115Z" fill="#231F20"/>
<path d="M29.3213 26.8146V26.7295H29.2833C29.1394 26.7295 28.9692 26.7045 28.9692 26.4831V24.3834C28.9692 24.1619 29.1394 24.1371 29.2833 24.1367H29.3213V24.0514C29.1364 24.0526 28.9044 24.0671 28.7093 24.0671C28.5191 24.0671 28.2896 24.0526 28.1342 24.0514V24.1367H28.1729C28.3153 24.1371 28.4862 24.1617 28.4866 24.3834V26.4831C28.4862 26.7045 28.3153 26.7295 28.1729 26.7295H28.1342V26.8146C28.2884 26.8128 28.5153 26.7987 28.7061 26.7987C28.9002 26.7987 29.1322 26.8134 29.3213 26.8146ZM29.3394 26.8492C29.1456 26.8492 28.9059 26.8325 28.7059 26.8325C28.5096 26.8325 28.2731 26.8492 28.1166 26.8492H28.0994V26.8321V26.7117V26.6943H28.1166H28.1729C28.3174 26.6919 28.4507 26.6792 28.4514 26.4831V24.3834C28.4505 24.1876 28.3174 24.1745 28.1729 24.1721H28.0994V24.1547V24.0168H28.1166C28.2731 24.0168 28.5142 24.0325 28.7093 24.0325C28.9091 24.0325 29.1496 24.0168 29.3396 24.0168H29.3562V24.0342V24.1721H29.3396H29.2835C29.1366 24.1745 29.005 24.1876 29.0035 24.3834V26.4831C29.005 26.6792 29.1366 26.6919 29.2835 26.6943H29.3562V26.7117V26.8492H29.3394Z" fill="#231F20"/>
<path d="M30.998 26.7156C31.7758 26.7156 31.9114 26.0299 31.9114 25.4453C31.9114 24.8596 31.5955 24.1504 30.9298 24.1504C30.2286 24.1504 30.02 24.7759 30.02 25.3124C30.02 26.0299 30.349 26.7156 30.998 26.7156ZM30.9373 23.9742C31.7919 23.9742 32.4729 24.5038 32.4729 25.3574C32.4729 26.2794 31.8116 26.8922 30.9581 26.8922C30.1079 26.8922 29.4591 26.315 29.4591 25.4533C29.4591 24.6199 30.1042 23.9742 30.9373 23.9742Z" fill="#231F20"/>
<path d="M30.0024 25.3124C30.0038 24.7732 30.2142 24.1327 30.9298 24.1327C31.6104 24.1342 31.9278 24.8564 31.9292 25.4453C31.9278 26.0297 31.7904 26.7321 30.9982 26.7321V26.7156V26.6982C31.7603 26.6975 31.8927 26.0299 31.894 25.4455C31.894 24.8649 31.5813 24.1692 30.9298 24.168C30.2422 24.1688 30.0391 24.7787 30.0372 25.3126C30.0376 26.0265 30.3636 26.6971 30.9982 26.6982V26.7156V26.7321C30.3329 26.7315 30.0038 26.0341 30.0024 25.3124ZM29.4411 25.4531C29.4428 24.6101 30.0953 23.958 30.9372 23.9567V23.9741V23.9916C30.1132 23.9916 29.4759 24.6286 29.475 25.4531C29.4767 26.3052 30.1163 26.8737 30.9581 26.874C31.8029 26.8737 32.4547 26.2698 32.4559 25.3568C32.4551 24.5138 31.7847 23.9922 30.9372 23.9916V23.9741V23.9569C31.7978 23.9578 32.4886 24.4927 32.4899 25.3568C32.489 26.2885 31.8197 26.9075 30.9581 26.909C30.101 26.9075 29.4428 26.3245 29.4411 25.4531Z" fill="#231F20"/>
<path d="M35.1738 26.042L35.1821 26.0341V24.5317C35.1821 24.2027 34.953 24.1547 34.8327 24.1547H34.7454V24.0344C34.9333 24.0344 35.118 24.0505 35.3058 24.0505C35.4706 24.0505 35.6349 24.0344 35.7994 24.0344V24.1547H35.7391C35.571 24.1547 35.382 24.1866 35.382 24.6638V26.4873C35.382 26.6278 35.3861 26.768 35.4063 26.8923H35.254L33.1896 24.5912V26.243C33.1896 26.5918 33.2579 26.7117 33.5659 26.7117H33.6347V26.8321C33.4622 26.8321 33.2902 26.8164 33.1178 26.8164C32.9374 26.8164 32.7529 26.8321 32.5723 26.8321V26.7117H32.6287C32.9057 26.7117 32.9892 26.5232 32.9892 26.2035V24.5148C32.9892 24.2906 32.8055 24.1547 32.6241 24.1547H32.5723V24.0344C32.7247 24.0344 32.8809 24.0505 33.0335 24.0505C33.1535 24.0505 33.269 24.0344 33.3898 24.0344L35.1738 26.042Z" fill="#231F20"/>
<path d="M35.1644 26.0341V26.033L35.1613 26.03L35.1644 26.0341ZM35.2542 26.8741H35.3856C35.3685 26.7535 35.3648 26.6204 35.3648 26.4871V24.6636C35.3648 24.1817 35.567 24.138 35.7391 24.1367H35.7826V24.0515C35.6234 24.0526 35.4659 24.0671 35.3056 24.0671C35.1231 24.0671 34.9439 24.0526 34.7624 24.0515V24.1367H34.8329C34.9566 24.1379 35.1986 24.1925 35.1986 24.5315L35.1944 26.0466L35.1867 26.0544L35.174 26.0676L33.3902 24.0515C33.2717 24.0515 33.155 24.0671 33.0336 24.0671C32.886 24.0671 32.7355 24.0526 32.5895 24.0515V24.1367H32.6247C32.8132 24.1379 33.0068 24.28 33.0068 24.5147V26.2031C33.0068 26.524 32.9174 26.7287 32.6289 26.7299L32.5895 26.7295V26.8148C32.7635 26.8136 32.942 26.7987 33.118 26.7987C33.2853 26.7987 33.4513 26.8134 33.6175 26.8148V26.7301H33.5659C33.2513 26.7297 33.1724 26.592 33.1724 26.243V24.5464L35.2542 26.8741ZM35.4067 26.9091L35.2409 26.9034L33.2068 24.6366V26.2428C33.2116 26.5917 33.2647 26.6898 33.5655 26.6934H33.6519V26.7115V26.8488H33.6349C33.4613 26.8488 33.2893 26.8327 33.1178 26.8327C32.9382 26.8327 32.7538 26.8488 32.572 26.8488H32.5555V26.8318V26.6932H32.572H32.6285C32.8926 26.6924 32.9688 26.5223 32.9718 26.203V24.5145C32.9716 24.3008 32.7966 24.1717 32.6243 24.1717H32.5555V24.1543V24.0165H32.572C32.7257 24.0165 32.8818 24.0322 33.0333 24.0322C33.1522 24.0322 33.2673 24.0165 33.4033 24.0227L35.1644 26.0056V24.5315C35.163 24.2131 34.9496 24.1743 34.8326 24.1719H34.7269V24.1545V24.0167H34.7452C34.9335 24.0167 35.1184 24.0324 35.305 24.0324C35.4689 24.0324 35.6327 24.0167 35.7992 24.0167H35.816V24.0341V24.1719H35.7992H35.7387C35.5735 24.1762 35.4029 24.1914 35.3995 24.6634V26.4869C35.3995 26.6272 35.4028 26.7671 35.4222 26.8892L35.4256 26.9089L35.4067 26.9091Z" fill="#231F20"/>
<path d="M37.0292 24.4832H37.0213L36.6477 25.6175H37.3983L37.0292 24.4832ZM36.4432 26.2588C36.4038 26.3948 36.3554 26.4999 36.3554 26.571C36.3554 26.6918 36.5243 26.7116 36.6557 26.7116H36.7005V26.8319C36.54 26.8232 36.3755 26.8164 36.215 26.8164C36.0707 26.8164 35.9266 26.8232 35.783 26.8319V26.7116H35.8058C35.9629 26.7116 36.0957 26.6192 36.1543 26.4507L36.7969 24.6117C36.8487 24.4631 36.9213 24.2629 36.9444 24.1143C37.0731 24.0705 37.233 23.9907 37.3104 23.9421C37.3215 23.9381 37.3297 23.934 37.3421 23.934C37.3537 23.934 37.3614 23.934 37.3695 23.9466C37.3816 23.9784 37.3937 24.0145 37.4058 24.0465L38.1432 26.1429C38.191 26.2828 38.2394 26.4309 38.2918 26.5519C38.3398 26.6644 38.4239 26.7118 38.5561 26.7118H38.5807V26.8321C38.4001 26.8234 38.2194 26.8166 38.0271 26.8166C37.831 26.8166 37.6303 26.8234 37.4257 26.8321V26.7118H37.4701C37.5616 26.7118 37.7189 26.6957 37.7189 26.5955C37.7189 26.5439 37.683 26.4356 37.6382 26.3068L37.482 25.8421H36.5723L36.4432 26.2588Z" fill="#231F20"/>
<path d="M36.6721 25.6H37.3731L37.0245 24.5265L36.6721 25.6ZM36.6237 25.6348L37.0086 24.4656H37.0205H37.0292H37.0413L37.4204 25.6348H36.6237ZM37.4425 26.8137C37.6408 26.8065 37.836 26.7986 38.0269 26.7986C38.2131 26.7986 38.3874 26.8065 38.5625 26.8134L38.5621 26.7294H38.5553C38.4196 26.7298 38.3251 26.6763 38.275 26.5581C38.2222 26.4371 38.1746 26.2883 38.1265 26.1484L37.389 24.0516C37.3771 24.0196 37.3644 23.9837 37.355 23.9561C37.3516 23.9514 37.352 23.9514 37.3495 23.9514H37.3416C37.3329 23.9514 37.3283 23.954 37.3189 23.9569C37.2404 24.0058 37.0801 24.0862 36.9617 24.1168C36.9368 24.2686 36.8642 24.4686 36.8126 24.6174L36.1707 26.4566C36.1098 26.6309 35.9698 26.73 35.8058 26.7296H35.8V26.8135C35.938 26.8065 36.0756 26.7988 36.2151 26.7988C36.3704 26.7988 36.529 26.8067 36.6829 26.8135V26.7296H36.6558C36.5254 26.7279 36.3428 26.7141 36.3378 26.5712C36.3388 26.4921 36.3881 26.3899 36.4275 26.2539L36.4435 26.259L36.4275 26.2535L36.5592 25.8251H37.4934L37.6545 26.3012C37.6987 26.4301 37.7352 26.5369 37.7352 26.5954C37.7295 26.7183 37.5609 26.7271 37.4699 26.7294H37.4429V26.8137H37.4425ZM38.5788 26.8491C38.3982 26.8419 38.2182 26.833 38.0271 26.833C37.8316 26.833 37.6306 26.8419 37.4265 26.8491L37.4087 26.85V26.8319V26.6941H37.4259H37.4697C37.5628 26.6941 37.701 26.6725 37.701 26.5952C37.7021 26.5496 37.6658 26.4402 37.6208 26.3122L37.4688 25.8588H36.584L36.4602 26.2638C36.4199 26.401 36.3724 26.5058 36.3728 26.5708C36.3728 26.6691 36.5231 26.6939 36.6557 26.6939H36.7169V26.7113V26.8498L36.6988 26.8489C36.5388 26.8417 36.3745 26.8328 36.215 26.8328C36.0715 26.8328 35.9276 26.8417 35.783 26.8489L35.7656 26.8498V26.8317V26.6939H35.783H35.8058C35.9552 26.6931 36.0802 26.6075 36.139 26.4451L36.7801 24.6053C36.8315 24.4571 36.9037 24.2576 36.9391 24.0981C37.065 24.0544 37.2259 23.9741 37.3038 23.9257C37.3142 23.9217 37.3253 23.917 37.3418 23.917C37.352 23.9158 37.373 23.9187 37.3852 23.9404C37.3973 23.972 37.4092 24.0085 37.4223 24.0408L38.1594 26.1371C38.2076 26.2774 38.2555 26.4254 38.3075 26.5449C38.3547 26.651 38.4271 26.6931 38.5553 26.6942H38.5967V26.7116V26.8502L38.5788 26.8491Z" fill="#231F20"/>
<path d="M39.5901 26.4389C39.5901 26.6002 39.7014 26.6474 39.83 26.6642C39.9941 26.6762 40.1746 26.6762 40.3595 26.6557C40.5276 26.6355 40.6719 26.5398 40.7439 26.4389C40.8076 26.351 40.8437 26.2387 40.8683 26.1508H40.9844C40.9401 26.3791 40.8842 26.6039 40.8361 26.8321C40.4843 26.8321 40.1304 26.8166 39.7784 26.8166C39.4254 26.8166 39.0728 26.8321 38.7204 26.8321V26.7117H38.7758C38.9204 26.7117 39.0773 26.692 39.0773 26.4434V24.3836C39.0773 24.1747 38.9204 24.1547 38.7758 24.1547H38.7204V24.0344C38.9323 24.0344 39.1412 24.0505 39.3533 24.0505C39.5581 24.0505 39.7581 24.0344 39.9631 24.0344V24.1547H39.8623C39.7099 24.1547 39.5904 24.159 39.5904 24.3713V26.4389H39.5901Z" fill="#231F20"/>
<path d="M40.8214 26.8145C40.8677 26.5967 40.9203 26.384 40.9634 26.1677H40.8808C40.8562 26.2549 40.8204 26.3624 40.7577 26.4496C40.6826 26.5534 40.5344 26.6513 40.3605 26.6731C40.2555 26.6837 40.1514 26.6891 40.0532 26.6891C39.9755 26.6891 39.9007 26.6857 39.8277 26.6806C39.6972 26.6663 39.5713 26.6105 39.5713 26.4388V24.3711C39.5713 24.1482 39.7124 24.1366 39.8619 24.1366H39.9443V24.0514C39.747 24.0525 39.552 24.0674 39.3526 24.0674C39.1454 24.0674 38.9423 24.0525 38.7372 24.0514V24.1366H38.7754C38.9183 24.1366 39.0934 24.1616 39.0934 24.3826V26.4432C39.0934 26.7026 38.9191 26.7294 38.7754 26.7294H38.7372V26.8145C39.0834 26.8137 39.4299 26.7986 39.778 26.7986C40.1264 26.7986 40.4743 26.8137 40.8214 26.8145ZM40.836 26.8491C40.4824 26.8491 40.1296 26.833 39.778 26.833C39.4254 26.833 39.0726 26.8491 38.7191 26.8491H38.7022V26.8321V26.6942H38.7191H38.7754C38.9202 26.6907 39.0578 26.6806 39.0595 26.4434V24.3828C39.0578 24.1877 38.9208 24.1746 38.7754 24.1722H38.7024V24.1548V24.017H38.7192C38.9327 24.017 39.1414 24.0327 39.3528 24.0327C39.5568 24.0327 39.7564 24.017 39.9627 24.017H39.9788V24.0344V24.1722H39.9627H39.8619C39.7065 24.1762 39.6099 24.1692 39.6065 24.3713V26.439C39.6074 26.5889 39.7056 26.629 39.8309 26.6468C39.9014 26.6517 39.9761 26.6544 40.0531 26.6544C40.1512 26.6544 40.2529 26.6498 40.3565 26.6388C40.5198 26.6194 40.6603 26.525 40.7295 26.4296C40.7915 26.3437 40.8265 26.2341 40.8507 26.1467L40.8539 26.1335H40.8675H41.005L41.0014 26.1545C40.956 26.3836 40.901 26.6073 40.8524 26.8357L40.8492 26.8491H40.836Z" fill="#231F20"/>
<path d="M40.8677 24.3435H40.9174C40.9719 24.3435 40.9972 24.3024 40.9972 24.2357C40.9972 24.1686 40.9585 24.1449 40.9148 24.1449H40.8677V24.3435ZM40.7255 24.566V24.5456C40.7772 24.5382 40.7868 24.5395 40.7868 24.5079V24.1952C40.7868 24.1512 40.7825 24.1359 40.7272 24.1385V24.117H40.9433C41.0176 24.117 41.0861 24.1525 41.0861 24.2293C41.0861 24.2918 41.0447 24.3385 40.9863 24.3565L41.0558 24.4533C41.0882 24.497 41.125 24.5384 41.1487 24.5529V24.5664H41.0666C41.0271 24.5664 40.9923 24.4836 40.915 24.3724H40.8681V24.5123C40.8681 24.5399 40.8779 24.5386 40.9297 24.5459V24.5664H40.7255V24.566ZM40.9352 24.6858C41.1245 24.6858 41.2691 24.525 41.2691 24.3435C41.2691 24.1618 41.1262 23.9996 40.9352 23.9996C40.7452 23.9996 40.6008 24.1616 40.6008 24.3435C40.6008 24.525 40.7452 24.6858 40.9352 24.6858ZM40.9352 23.9205C41.177 23.9205 41.3574 24.1062 41.3574 24.3435C41.3574 24.5807 41.1768 24.7643 40.9352 24.7643C40.694 24.7643 40.5132 24.5805 40.5132 24.3435C40.5132 24.1062 40.694 23.9205 40.9352 23.9205Z" fill="#231F20"/>
<path d="M22.6898 16.6726C26.4387 16.6726 29.4778 13.6335 29.4778 9.88456C29.4778 6.13565 26.4387 3.09656 22.6898 3.09656C18.9409 3.09656 15.9018 6.13565 15.9018 9.88456C15.9018 13.6335 18.9409 16.6726 22.6898 16.6726Z" fill="white"/>
<path d="M22.6993 16.7938C18.8092 16.8123 15.6075 13.6607 15.6075 9.82449C15.6075 5.6319 18.8092 2.73191 22.6993 2.73267H24.5222C28.3661 2.73191 31.8745 5.63057 31.8745 9.82449C31.8745 13.6596 28.3661 16.7938 24.5222 16.7938H22.6993ZM22.715 3.31402C19.1601 3.31535 16.2799 6.19605 16.2794 9.75094C16.2799 13.3055 19.1601 16.1856 22.715 16.1863C26.2699 16.1856 29.1506 13.3055 29.1515 9.75094C29.1507 6.19605 26.2699 3.31535 22.715 3.31402ZM21.2539 13.5571V5.94366C19.7242 6.53277 18.6392 8.01311 18.6352 9.75075C18.6392 11.4882 19.7242 12.9687 21.2539 13.5571ZM26.7951 9.75094C26.7924 8.01273 25.7059 6.53012 24.1747 5.94309V13.5588C25.7057 12.9706 26.7924 11.4895 26.7951 9.75094Z" fill="#004A97"/>
</g>
<defs>
<clipPath id="clip0_50_5">
<rect width="47.4824" height="30" fill="white"/>
</clipPath>
</defs>
</svg>
