<?xml version="1.0" encoding="UTF-8"?>
<svg width="84px" height="20px" viewBox="0 0 84 20" version="1.1" xmlns="http://www.w3.org/2000/svg" xmlns:xlink="http://www.w3.org/1999/xlink">
    <title>img_mydebit</title>
    <defs>
        <polygon id="path-1" points="0.26724 0.195356907 7.91964 0.195356907 7.91964 18.4 0.26724 18.4"></polygon>
    </defs>
    <g id="Asset-Export" stroke="none" stroke-width="1" fill="none" fill-rule="evenodd">
        <g id="img_mydebit" transform="translate(0.500000, 0.000000)">
            <path d="M7.3984,13.31288 L5.5736,10.84008 C5.3008,10.47168 4.8296,9.98608 4.8296,9.50128 C4.8296,9.01768 5.2976,8.53408 5.5736,8.16568 L7.3984,5.69128 C7.4852,5.57008 7.5688,5.48808 7.6484,5.42248 L7.6484,2.57168 C7.6484,0.28768 6.6944,-0.28912 5.5248,1.29368 L1.5892,6.62168 C1.0024,7.41728 0,8.45888 0,9.50448 C0,10.54528 1.0056,11.58968 1.5892,12.38408 L5.5248,17.71048 C6.6944,19.29248 7.6484,18.71968 7.6484,16.43248 L7.6484,13.58208 C7.5688,13.51448 7.4852,13.43128 7.3984,13.31288" id="Fill-1" fill="#186FB7"></path>
            <g id="Group-5" transform="translate(8.800000, 0.204720)">
                <mask id="mask-2" fill="white">
                    <use xlink:href="#path-1"></use>
                </mask>
                <g id="Clip-4"></g>
                <path d="M6.33044,6.41716 L2.39444,1.08916 C1.22484,-0.49364 0.26724,0.08276 0.26724,2.36716 L0.26724,5.21796 C0.35084,5.28356 0.43444,5.36516 0.52044,5.48676 L2.34604,7.96076 C2.61884,8.32916 3.08604,8.81276 3.08604,9.29636 C3.08604,9.78116 2.61884,10.26716 2.34604,10.63556 L0.52044,13.10836 C0.43444,13.22956 0.35084,13.30956 0.26724,13.37716 L0.26724,16.22756 C0.26724,18.51476 1.22484,19.08796 2.39444,17.50596 L6.33044,12.17916 C6.91724,11.38516 7.91964,10.34076 7.91964,9.29636 C7.91964,8.25436 6.91724,7.21236 6.33044,6.41716" id="Fill-3" fill="#212C56" mask="url(#mask-2)"></path>
            </g>
            <polygon id="Fill-6" fill="#186FB7" points="19.63084 3.66796 23.32044 3.66796 25.86884 10.89116 25.90004 10.89116 28.46404 3.66796 32.13844 3.66796 32.13844 14.73716 29.69924 14.73716 29.69924 6.24756 29.66804 6.24756 26.76004 14.73716 24.90004 14.73716 22.10084 6.24756 22.06964 6.24756 22.06964 14.73716 19.63084 14.73716"></polygon>
            <path d="M38.47032,15.97228 C38.31392,16.37908 38.16232,16.73828 38.01632,17.05108 C37.87032,17.36388 37.68592,17.62708 37.46192,17.84068 C37.23752,18.05388 36.95312,18.21548 36.60952,18.32548 C36.26552,18.43468 35.81232,18.48948 35.24912,18.48948 C34.64472,18.48948 34.06112,18.39588 33.49832,18.20788 L33.81112,16.28468 C34.16472,16.44148 34.53032,16.51948 34.90552,16.51948 C35.16552,16.51948 35.37952,16.49068 35.54592,16.43348 C35.71312,16.37628 35.85152,16.29268 35.96112,16.18308 C36.07032,16.07388 36.16112,15.94108 36.23432,15.78468 C36.30712,15.62828 36.38512,15.44588 36.46872,15.23748 L36.64072,14.79948 L33.31112,7.13908 L35.84392,7.13908 L37.79752,12.15748 L37.82872,12.15748 L39.50152,7.13908 L41.90952,7.13908 L38.47032,15.97228 Z" id="Fill-8" fill="#186FB7"></path>
            <path d="M45.52012,12.48596 L46.78652,12.48596 C47.34972,12.48596 47.87332,12.42836 48.35852,12.31356 C48.84292,12.19916 49.26212,12.00916 49.61692,11.74316 C49.97092,11.47756 50.24972,11.12796 50.45292,10.69556 C50.65612,10.26316 50.75852,9.73396 50.75852,9.10876 C50.75852,8.56676 50.65612,8.09516 50.45292,7.69396 C50.24972,7.29276 49.97652,6.96156 49.63252,6.70116 C49.28812,6.44076 48.88412,6.24516 48.42092,6.11476 C47.95692,5.98476 47.46932,5.91916 46.95932,5.91916 L45.52012,5.91916 L45.52012,12.48596 Z M43.08212,3.66796 L46.73972,3.66796 C47.62572,3.66796 48.46772,3.76716 49.26452,3.96516 C50.06212,4.16316 50.75852,4.48356 51.35212,4.92676 C51.94572,5.36956 52.41772,5.94556 52.76692,6.65396 C53.11612,7.36316 53.29052,8.22276 53.29052,9.23396 C53.29052,10.13036 53.12092,10.91996 52.78252,11.60236 C52.44372,12.28516 51.98812,12.85876 51.41452,13.32236 C50.84132,13.78596 50.17932,14.13796 49.42932,14.37756 C48.67852,14.61756 47.89132,14.73716 47.06852,14.73716 L43.08212,14.73716 L43.08212,3.66796 Z" id="Fill-10" fill="#212C56"></path>
            <path d="M59.8568,10.07812 C59.8676,9.68212 59.7372,9.34332 59.466,9.06172 C59.1952,8.78052 58.846,8.63972 58.4184,8.63972 C58.1584,8.63972 57.9288,8.68132 57.7312,8.76492 C57.5324,8.84812 57.3632,8.95492 57.2224,9.08532 C57.082,9.21572 56.9724,9.36652 56.8944,9.53852 C56.816,9.71052 56.7716,9.89052 56.7616,10.07812 L59.8568,10.07812 Z M61.8428,13.42372 C61.4676,13.90332 60.9928,14.27332 60.42,14.53412 C59.8468,14.79412 59.252,14.92452 58.6372,14.92452 C58.0536,14.92452 57.5044,14.83092 56.988,14.64332 C56.4724,14.45572 56.024,14.18732 55.6436,13.83812 C55.2632,13.48892 54.964,13.06972 54.7444,12.57972 C54.5256,12.08972 54.416,11.54252 54.416,10.93772 C54.416,10.33372 54.5256,9.78652 54.7444,9.29612 C54.964,8.80652 55.2632,8.38692 55.6436,8.03772 C56.024,7.68852 56.4724,7.42012 56.988,7.23252 C57.5044,7.04492 58.0536,6.95132 58.6372,6.95132 C59.1796,6.95132 59.6716,7.04492 60.1152,7.23252 C60.5584,7.42012 60.9332,7.68852 61.2404,8.03772 C61.5484,8.38692 61.7848,8.80652 61.952,9.29612 C62.1184,9.78652 62.202,10.33372 62.202,10.93772 L62.202,11.67252 L56.7616,11.67252 C56.8552,12.12092 57.0584,12.47812 57.3708,12.74372 C57.684,13.00932 58.0692,13.14252 58.528,13.14252 C58.914,13.14252 59.2396,13.05612 59.5052,12.88452 C59.7708,12.71252 60.0028,12.49092 60.2012,12.21972 L61.8428,13.42372 Z" id="Fill-12" fill="#212C56"></path>
            <path d="M66.00136,10.93788 C66.00136,11.51148 66.16536,11.97508 66.49336,12.32948 C66.82176,12.68388 67.28336,12.86108 67.87696,12.86108 C68.47176,12.86108 68.93256,12.68388 69.26056,12.32948 C69.58896,11.97508 69.75376,11.51148 69.75376,10.93788 C69.75376,10.36468 69.58896,9.90068 69.26056,9.54628 C68.93256,9.19228 68.47176,9.01468 67.87696,9.01468 C67.28336,9.01468 66.82176,9.19228 66.49336,9.54628 C66.16536,9.90068 66.00136,10.36468 66.00136,10.93788 L66.00136,10.93788 Z M63.84336,2.91748 L66.18896,2.91748 L66.18896,7.95188 L66.22016,7.95188 C66.49136,7.58708 66.83736,7.32908 67.25976,7.17788 C67.68176,7.02708 68.13736,6.95108 68.62776,6.95108 C69.16936,6.95108 69.65456,7.06308 70.08176,7.28748 C70.50936,7.51148 70.87096,7.81108 71.16856,8.18628 C71.46536,8.56148 71.69416,8.99148 71.85616,9.47628 C72.01776,9.96108 72.09816,10.46868 72.09816,11.00028 C72.09816,11.57388 72.00976,12.10028 71.83256,12.57948 C71.65536,13.05908 71.40296,13.47348 71.07496,13.82268 C70.74576,14.17188 70.35296,14.44268 69.89416,14.63548 C69.43496,14.82828 68.92496,14.92468 68.36216,14.92468 C68.09056,14.92468 67.83576,14.88788 67.59576,14.81508 C67.35616,14.74228 67.13496,14.64868 66.93096,14.53388 C66.72776,14.41908 66.55056,14.29148 66.39976,14.15068 C66.24816,14.01028 66.12616,13.87228 66.03256,13.73628 L66.00136,13.73628 L66.00136,14.73708 L63.84336,14.73708 L63.84336,2.91748 Z" id="Fill-14" fill="#212C56"></path>
            <path d="M73.5052,14.73712 L75.8504,14.73712 L75.8504,7.13872 L73.5052,7.13872 L73.5052,14.73712 Z M73.3176,4.74672 C73.3176,4.37152 73.4504,4.05112 73.7168,3.78512 C73.9824,3.51952 74.3028,3.38672 74.678,3.38672 C75.0536,3.38672 75.374,3.51952 75.6396,3.78512 C75.9052,4.05112 76.038,4.37152 76.038,4.74672 C76.038,5.12192 75.9052,5.44232 75.6396,5.70832 C75.374,5.97392 75.0536,6.10672 74.678,6.10672 C74.3028,6.10672 73.9824,5.97392 73.7168,5.70832 C73.4504,5.44232 73.3176,5.12192 73.3176,4.74672 L73.3176,4.74672 Z" id="Fill-16" fill="#212C56"></path>
            <path d="M82.71384,9.01484 L80.65064,9.01484 L80.65064,11.54764 C80.65064,11.75644 80.66064,11.94644 80.68184,12.11844 C80.70224,12.29004 80.74904,12.43884 80.82224,12.56404 C80.89504,12.68924 81.00744,12.78564 81.15824,12.85324 C81.30904,12.92124 81.50984,12.95484 81.76064,12.95484 C81.88584,12.95484 82.04984,12.94164 82.25304,12.91564 C82.45584,12.89004 82.60984,12.82964 82.71384,12.73604 L82.71384,14.69004 C82.45384,14.78404 82.18264,14.84644 81.90144,14.87764 C81.62024,14.90884 81.34344,14.92444 81.07224,14.92444 C80.67624,14.92444 80.31144,14.88284 79.97784,14.79964 C79.64424,14.71644 79.35304,14.58364 79.10304,14.40084 C78.85224,14.21884 78.65664,13.98164 78.51624,13.68964 C78.37544,13.39804 78.30544,13.04324 78.30544,12.62644 L78.30544,9.01484 L76.80464,9.01484 L76.80464,7.13884 L78.30544,7.13884 L78.30544,4.88764 L80.65064,4.88764 L80.65064,7.13884 L82.71384,7.13884 L82.71384,9.01484 Z" id="Fill-18" fill="#212C56"></path>
        </g>
    </g>
</svg>