<svg width="30" height="30" viewBox="0 0 30 30" fill="none" xmlns="http://www.w3.org/2000/svg">
<g clip-path="url(#clip0_47_3)">
<path d="M29.8429 30H15.011H0V14.8512V0H14.811H29.8429V14.9988V30Z" fill="white"/>
<path d="M29.8429 30V25.2462H26.2427L24.3888 23.1858L22.526 25.2462H10.6557V15.6432H6.82448L11.5767 4.8318H16.1599L17.7959 8.5356V4.8318H23.4691L24.4539 7.623L25.4453 4.8318H29.8429V0H0V30H29.8429ZM26.8491 24.0438H29.8429L25.8828 19.8222L29.8429 15.6486H26.8968L24.4509 18.3354L22.0289 15.6486H19.0344L22.9713 19.8462L19.0344 24.0438H21.9459L24.4038 21.333L26.8497 24.0438H26.8491ZM27.5492 19.8258L29.8423 22.2786V17.3934L27.5492 19.8258ZM14.2017 22.101V20.7936H18.9144V18.8988H14.2017V17.5914H19.0338V15.6486H11.9228V24.0444H19.0338V22.1016H14.2017V22.101ZM27.5874 14.43H29.8423V6.0342H26.3346L24.4611 11.2632L22.6001 6.0342H19.0326V14.43H21.2876V8.553L23.4351 14.43H25.4393L27.5868 8.541V14.43H27.5874ZM16.4679 14.43H19.0332L15.3464 6.0342H12.4111L8.72428 14.43H11.2299L11.9223 12.7506H15.7642L16.4679 14.43ZM14.9764 10.8678H12.7095L13.8429 8.121L14.9764 10.8678V10.8678Z" fill="#006FCF"/>
</g>
<defs>
<clipPath id="clip0_47_3">
<rect width="29.8429" height="30" fill="white"/>
</clipPath>
</defs>
</svg>
