<?xml version="1.0" encoding="UTF-8"?>
<svg width="43px" height="27px" viewBox="0 0 43 27" version="1.1" xmlns="http://www.w3.org/2000/svg" xmlns:xlink="http://www.w3.org/1999/xlink">
    <title>img_unionpay</title>
    <defs>
        <polygon id="path-1" points="0 0 21.3084274 0 21.3084274 27 0 27"></polygon>
    </defs>
    <g id="Products-&amp;-Services" stroke="none" stroke-width="1" fill="none" fill-rule="evenodd">
        <g id="Product-&amp;-Services-Desktop" transform="translate(-1160.000000, -1183.000000)">
            <g id="img_unionpay" transform="translate(1160.000000, 1183.000000)">
                <g id="Group-3">
                    <mask id="mask-2" fill="white">
                        <use xlink:href="#path-1"></use>
                    </mask>
                    <g id="Clip-2"></g>
                    <path d="M8.42174751,0 L19.1537224,0 C20.6519197,0 21.584589,1.22608111 21.2350264,2.73599597 L16.2376869,24.2685413 C15.8846085,25.7739189 14.3854067,27 12.8867071,27 L2.15423,27 C0.6555304,27 -0.276134396,25.7739189 0.0734282443,24.2685413 L5.07327894,2.73599597 C5.42183709,1.22608111 6.92003444,0 8.42174751,0" id="Fill-1" fill="#ED171F" mask="url(#mask-2)"></path>
                </g>
                <path d="M18.2611825,0 L30.6038576,0 C32.1015527,0 31.4265352,1.22608111 31.0739591,2.73599597 L26.0771218,24.2685413 C25.7280614,25.7739189 25.8375509,27 24.3358378,27 L11.9941672,27 C10.4939609,27 9.5648073,25.7739189 9.91738341,24.2685413 L14.9122117,2.73599597 C15.26529,1.22608111 16.7629851,0 18.2611825,0" id="Fill-4" fill="#082F67"></path>
                <path d="M30.1157255,0 L40.8461936,0 C42.3453955,0 43.2770603,1.22608111 42.9259909,2.73599597 L37.9296559,24.2685413 C37.5785865,25.7739189 36.0798869,27 34.5761649,27 L23.8487102,27 C22.3469972,27 21.4168391,25.7739189 21.768913,24.2685413 L26.7637412,2.73599597 C27.1153128,1.22608111 28.6135102,0 30.1157255,0" id="Fill-6" fill="#006A65"></path>
                <path d="M31.8718257,15.8999832 L30.5639793,20.2442023 L30.9155509,20.2442023 L30.6438363,21.1425891 L30.2922647,21.1425891 L30.2103987,21.4213814 L28.9658352,21.4213814 L29.0502124,21.1425891 L26.5204034,21.1425891 L26.7745395,20.3112536 L27.0301823,20.3112536 L28.357114,15.8999832 L28.6222995,15.0086545 L29.8919753,15.0086545 L29.7593826,15.4593603 C29.7593826,15.4593603 30.0973936,15.2143457 30.4183282,15.1306576 C30.7387606,15.0459612 32.5794892,15.0152084 32.5794892,15.0152084 L32.3067701,15.8999832 L31.8718257,15.8999832 Z M29.6343235,15.8999832 L29.2983215,17.0101109 C29.2983215,17.0101109 29.6740009,16.840214 29.8804236,16.7832456 C30.0883531,16.729302 30.4007496,16.7081279 30.4007496,16.7081279 L30.6438363,15.8999832 L29.6343235,15.8999832 Z M29.1315761,17.5621499 L28.7840224,18.7166424 C28.7840224,18.7166424 29.16824,18.5190175 29.3746627,18.4575118 C29.5825923,18.4091138 29.8969977,18.3697905 29.8969977,18.3697905 L30.1436001,17.5621499 L29.1315761,17.5621499 Z M28.3219569,20.256806 L29.3334786,20.256806 L29.6262876,19.2807809 L28.6142636,19.2807809 L28.3219569,20.256806 Z" id="Fill-8" fill="#FFFFFF"></path>
                <path d="M32.4329843,15.0153092 L33.7880418,15.0153092 L33.8036114,15.5224793 C33.7950732,15.6076798 33.868401,15.6480114 34.0251015,15.6480114 L34.3003318,15.6480114 L34.048707,16.4848924 L33.317438,16.4848924 C32.6826001,16.531778 32.4430292,16.2580271 32.457092,15.9510027 L32.4329843,15.0153092 Z" id="Fill-10" fill="#FFFFFF"></path>
                <path d="M32.6107288,18.9864105 L31.3189543,18.9864105 L31.5409466,18.2402756 L33.0170452,18.2402756 L33.2284904,17.5601837 L31.7704727,17.5601837 L32.0205908,16.7197737 L36.0782295,16.7197737 L35.8240935,17.5601837 L34.4635113,17.5601837 L34.2505593,18.2402756 L35.614155,18.2402756 L35.3901536,18.9864105 L33.9130506,18.9864105 L33.6518831,19.3004929 L34.2505593,19.3004929 L34.3957082,20.2397154 C34.4112778,20.331974 34.4142913,20.3929756 34.4434215,20.4333072 C34.4735562,20.4680932 34.6528577,20.4842259 34.7568225,20.4842259 L34.9386352,20.4842259 L34.6624004,21.3982411 L34.2018416,21.3982411 C34.1305227,21.3982411 34.0250513,21.3921914 33.8809069,21.3846292 C33.7412827,21.3725297 33.6423404,21.2913623 33.5499273,21.2469975 C33.4655501,21.2046493 33.3389843,21.1018037 33.3103564,20.9268653 L33.1652075,19.9896594 L32.4952125,20.9142617 C32.2817583,21.2046493 31.9934695,21.4269774 31.5072962,21.4269774 L30.5660887,21.4269774 L30.8126911,20.6117746 L31.1717964,20.6117746 C31.2757612,20.6117746 31.367672,20.5709388 31.4349729,20.5356487 C31.5042827,20.5064082 31.5650544,20.4716222 31.6343642,20.3687766 L32.6107288,18.9864105 Z" id="Fill-12" fill="#FFFFFF"></path>
                <path d="M18.4623819,16.9459836 L21.8826715,16.9459836 L21.6300422,17.7657237 L20.2619263,17.7657237 L20.0494766,18.4629565 L21.4487317,18.4629565 L21.1935911,19.3094163 L19.7953406,19.3094163 L19.4563251,20.4452554 C19.4146387,20.5712917 19.7868024,20.5889368 19.9214041,20.5889368 L20.6225384,20.4916368 L20.3417833,21.4273303 L18.763729,21.4273303 C18.6391722,21.4273303 18.5427411,21.4096852 18.4051259,21.3784282 C18.2725332,21.3451546 18.2132683,21.2856655 18.1545056,21.1949193 C18.0972496,21.1016525 18.009859,21.0260307 18.0691239,20.8284058 L18.5216468,19.3240365 L17.7451758,19.3240365 L18.0028275,18.4629565 L18.7838188,18.4629565 L18.991246,17.7657237 L18.2132683,17.7657237 L18.4623819,16.9459836 Z" id="Fill-14" fill="#FFFFFF"></path>
                <path d="M20.765628,15.4737284 L22.1683988,15.4737284 L21.9117515,16.3307753 L19.9951839,16.3307753 L19.7867522,16.5107551 C19.698357,16.5979722 19.6672178,16.5611696 19.5511992,16.6241878 C19.4432165,16.6796437 19.2146949,16.788035 18.919877,16.788035 L18.3046267,16.788035 L18.5542425,15.9637576 L18.7390687,15.9637576 C18.895267,15.9637576 19.0012407,15.9506498 19.054981,15.9158638 C19.1162549,15.8775487 19.184058,15.7903316 19.2629105,15.6481627 L19.6144821,15.0053775 L21.0102214,15.0053775 L20.765628,15.4737284 Z" id="Fill-16" fill="#FFFFFF"></path>
                <path d="M22.7709423,15.0153092 L23.9662858,15.0153092 L23.792509,15.618771 C23.792509,15.618771 24.1691929,15.316788 24.4338761,15.208901 C24.6970526,15.1095844 25.2932176,15.0208548 25.2932176,15.0208548 L27.2268615,15.0107719 L26.5679158,17.2133823 C26.4574219,17.5914911 26.3283449,17.8354974 26.2474834,17.9469135 C26.1736534,18.0603462 26.0882717,18.1556296 25.9190151,18.2478882 C25.7567899,18.3351053 25.6081253,18.3855198 25.4715146,18.3996359 C25.3434421,18.4092147 25.1475665,18.4142561 24.8758518,18.4167768 L23.0135267,18.4167768 L22.487676,20.1601109 C22.4379538,20.3320244 22.413846,20.4136959 22.4464919,20.4600773 C22.4741154,20.5024255 22.5373983,20.549311 22.624789,20.549311 L23.4459598,20.4716726 L23.1662093,21.4270278 L22.2455939,21.4270278 C21.9527849,21.4270278 21.739833,21.420978 21.5901639,21.4093827 C21.4485308,21.3982915 21.3003685,21.4093827 21.2024306,21.3322485 C21.1155422,21.2566267 20.9854607,21.1578143 20.9884228,21.0554728 C20.9980169,20.9606935 21.0361875,20.8034002 21.0969592,20.5886343 L22.7709423,15.0153092 Z M25.3087872,17.2411102 L23.3490265,17.2411102 L23.2294922,17.6383767 L24.9250719,17.6383767 C25.1254677,17.6131694 25.1666518,17.6419057 25.1832259,17.6323269 L25.3087872,17.2411102 Z M23.4580137,16.882663 C23.4580137,16.882663 23.8402223,16.531778 24.4956522,16.4178411 C24.6448191,16.3886007 25.5769861,16.3981795 25.5769861,16.3981795 L25.718117,15.9273079 L23.743289,15.9273079 L23.4580137,16.882663 Z" id="Fill-18" fill="#FFFFFF"></path>
                <path d="M26.25567,18.5712973 L26.1461806,19.1006498 C26.0974628,19.2650011 26.0567809,19.3915416 25.9322241,19.4974121 C25.8031471,19.6078199 25.6484556,19.7242774 25.2893503,19.7242774 L24.6273912,19.7509971 L24.6218665,20.3504257 C24.612826,20.5208268 24.6585304,20.5026776 24.6856516,20.5304056 C24.7162885,20.5591418 24.7429075,20.5727538 24.7735445,20.5823325 L24.9819762,20.5727538 L25.6158097,20.535447 L25.3546422,21.4096348 L24.6273912,21.4096348 C24.1176123,21.4096348 23.7399239,21.3985436 23.6153671,21.2987228 C23.4938238,21.2215886 23.4772497,21.1227762 23.4812677,20.9559041 L23.526972,18.6242326 L24.6866561,18.6242326 L24.672091,19.1006498 L24.9518415,19.1006498 C25.0472681,19.1006498 25.1095465,19.0905669 25.1512329,19.0658638 C25.1848833,19.0381358 25.2115023,19.0018373 25.2300854,18.9428523 L25.3430905,18.5712973 L26.25567,18.5712973 Z" id="Fill-20" fill="#FFFFFF"></path>
                <path d="M9.69172465,6.87911158 C9.64953606,7.0666536 8.90571096,10.5170233 8.90269748,10.5190399 C8.74147678,11.2162727 8.62746713,11.7163847 8.23119569,12.0355086 C8.00568761,12.2210341 7.74251114,12.3122843 7.43865281,12.3122843 C6.9504705,12.3122843 6.6636885,12.0687822 6.61497072,11.6054728 L6.60643255,11.4471712 C6.60643255,11.4471712 6.75459488,10.5109736 6.75660386,10.5074445 C6.75660386,10.5074445 7.5375951,7.36258683 7.67772151,6.94868362 C7.68374845,6.92549294 7.68676192,6.9138976 7.69027764,6.90179812 C6.16797252,6.91541004 5.89726237,6.90179812 5.87968379,6.87911158 C5.87114562,6.90986444 5.83046376,7.10547278 5.83046376,7.10547278 L5.03189394,10.6465886 L4.9625841,10.9490757 L4.83200036,11.9311506 C4.83200036,12.2210341 4.88925631,12.4599989 5.00226147,12.6611528 C5.36638922,13.3004089 6.40452999,13.3951882 6.99014787,13.3951882 C7.74703134,13.3951882 8.45469479,13.2328535 8.93383669,12.9404492 C9.76505245,12.446387 9.98403134,11.6730282 10.1784002,10.9894073 L10.2677999,10.6390264 C10.2677999,10.6390264 11.0739034,7.37367802 11.2115185,6.94868362 C11.2155365,6.92549294 11.2180477,6.9138976 11.2235724,6.90179812 C10.1211443,6.9138976 9.79669389,6.90179812 9.69172465,6.87911158" id="Fill-22" fill="#FFFFFF"></path>
                <path d="M14.1460366,13.3601501 C13.6056208,13.3525879 13.4162744,13.3525879 12.7849522,13.3848532 L12.7603422,13.3379677 C12.8160914,13.0969863 12.8758586,12.8595339 12.9290966,12.6150235 L13.0064423,12.2858167 C13.1234655,11.7720928 13.2379774,11.1751849 13.251538,10.995205 C13.2625874,10.8853014 13.298749,10.6120547 12.9878593,10.6120547 C12.856271,10.6120547 12.7196603,10.6765853 12.5820452,10.7396034 C12.5057039,11.0128501 12.3515146,11.7781425 12.2806981,12.1285234 C12.1234953,12.8645754 12.1134504,12.9482635 12.0436383,13.3122563 L11.9984363,13.3601501 C11.4414464,13.3525879 11.2490865,13.3525879 10.6087239,13.3848532 L10.5785892,13.3314138 C10.6860696,12.8938158 10.7925456,12.4526888 10.8950036,12.016099 C11.1632026,10.8308537 11.2264855,10.3766189 11.30132,9.77416536 L11.3515445,9.73837105 C11.9758352,9.65064979 12.127011,9.63350885 12.8025308,9.49386063 L12.8597868,9.55788707 L12.757831,9.93549182 C12.8718406,9.86793637 12.9798233,9.79886847 13.097851,9.73837105 C13.4162744,9.58107775 13.7708595,9.53469639 13.9662329,9.53469639 C14.2610508,9.53469639 14.5844967,9.61788035 14.7201029,9.96120323 C14.8486776,10.2672194 14.7637982,10.6453283 14.5950438,11.3884383 L14.5076532,11.766043 C14.3343786,12.5933453 14.3062529,12.7445888 14.2093195,13.3122563 L14.1460366,13.3601501 Z" id="Fill-24" fill="#FFFFFF"></path>
                <path d="M16.3381861,13.3601501 C16.0137358,13.3586377 15.8048018,13.3525879 15.5998857,13.3586377 C15.3969787,13.3601501 15.1985918,13.3707372 14.8967425,13.3848532 L14.8786617,13.3586377 L14.8585719,13.3314138 C14.9409401,13.0178355 14.9876489,12.9079319 15.0278285,12.7965158 C15.0690126,12.686108 15.1091922,12.5741878 15.180511,12.2560721 C15.2749331,11.8416648 15.3331936,11.5512772 15.3748799,11.2976921 C15.418073,11.0511651 15.442683,10.842449 15.47332,10.5999552 L15.4984322,10.5807977 L15.5255535,10.557607 C15.8484971,10.5117298 16.0549199,10.4814811 16.2638539,10.4492158 C16.4758013,10.4184629 16.6892555,10.3766189 17.0242531,10.3130966 L17.0373114,10.342337 L17.0463518,10.3720816 C16.9840734,10.6286915 16.9207905,10.8853014 16.8600189,11.1464486 C16.8002517,11.4060834 16.7369688,11.6611808 16.6807174,11.9198073 C16.5581695,12.4657965 16.5104562,12.6684629 16.481326,12.8141609 C16.454707,12.953305 16.4456666,13.0289267 16.3974511,13.3122563 L16.3683209,13.3379677 L16.3381861,13.3601501 Z" id="Fill-26" fill="#FFFFFF"></path>
                <path d="M21.1870117,11.4954683 C21.3763581,10.6621163 21.2312093,10.2724121 21.0458808,10.0339514 C20.7631168,9.67399171 20.2679031,9.55753417 19.7520973,9.55753417 C19.4432165,9.55753417 18.7054183,9.58929532 18.1283386,10.1236892 C17.7164976,10.5073437 17.5231332,11.0306464 17.4071145,11.5302543 C17.2910959,12.0389368 17.1569965,12.9595059 17.9982571,13.3008122 C18.2594246,13.4107159 18.631086,13.4419729 18.8731682,13.4419729 C19.489423,13.4419729 20.1212475,13.2710677 20.5943624,12.7659142 C20.9630104,12.3550359 21.1297558,11.7450202 21.1870117,11.4954683 M19.776205,11.4349709 C19.7465726,11.5746191 19.6250292,12.0979218 19.4577816,12.3202498 C19.3422652,12.4835929 19.2051523,12.5819012 19.0534742,12.5819012 C19.0102811,12.5819012 18.7440912,12.5819012 18.7390687,12.1846348 C18.735553,11.9890264 18.7767371,11.7853518 18.8254549,11.5685693 C18.9675903,10.9373796 19.1353402,10.4080271 19.5627508,10.4080271 C19.8992551,10.4080271 19.9213539,10.8017645 19.776205,11.4349709" id="Fill-28" fill="#FFFFFF"></path>
                <path d="M34.3834534,13.416564 C33.7325437,13.4105142 33.5452062,13.4105142 32.9435165,13.4362256 L32.9028346,13.3873235 C33.0675711,12.7657125 33.2323075,12.1461181 33.3774563,11.5179532 C33.5657983,10.7027504 33.6089914,10.3564026 33.6722742,9.87948129 L33.720992,9.83914968 C34.3668793,9.74588281 34.5466831,9.72017141 35.2206961,9.5951434 L35.2417904,9.65059937 C35.1182381,10.1618026 34.9946858,10.67351 34.8771604,11.1867298 C34.6285491,12.2620715 34.5381449,12.8085649 34.4427183,13.3701826 L34.3834534,13.416564 Z" id="Fill-30" fill="#FFFFFF"></path>
                <path d="M34.6931378,11.5688718 C34.8824842,10.739553 34.1210805,11.4957708 33.999035,11.2220199 C33.8121997,10.7955131 33.9292229,9.92989581 33.1788686,9.64102061 C32.8910821,9.52859624 32.2130511,9.6742942 31.6344647,10.2051591 C31.2251349,10.5873011 31.0297615,11.10405 30.9152496,11.6031537 C30.7987287,12.1047782 30.6651315,13.0233307 31.501872,13.3530417 C31.7660529,13.4654661 32.0086373,13.4977313 32.249715,13.4881526 C33.0914779,13.4422754 33.7333473,12.1677963 34.2069645,11.6621387 C34.5731012,11.2628557 34.6378908,11.812374 34.6931378,11.5688718 M33.4053812,11.506862 C33.3737397,11.6399563 33.2516941,12.1693088 33.0844465,12.3881078 C32.9739526,12.5448969 32.7112783,12.6442135 32.5601025,12.6442135 C32.5174117,12.6442135 32.2527285,12.6442135 32.2431858,12.2504761 C32.2411768,12.0568844 32.2818587,11.8532097 32.3320832,11.6344107 C32.4742186,11.0168328 32.6419685,10.489497 33.0693791,10.489497 C33.4063857,10.489497 33.5500278,10.8736556 33.4053812,11.506862" id="Fill-32" fill="#FFFFFF"></path>
                <path d="M24.8739433,13.3601501 C24.332523,13.3525879 24.1492035,13.3525879 23.5133611,13.3848532 L23.4902579,13.3379677 C23.5439981,13.0969863 23.605272,12.8595339 23.6615235,12.6150235 L23.7373625,12.2858167 C23.8548879,11.7720928 23.9693998,11.1751849 23.9819559,10.995205 C23.992503,10.8853014 24.0286647,10.6120547 23.7202861,10.6120547 C23.5866889,10.6120547 23.451585,10.6765853 23.3129653,10.7396034 C23.2376285,11.0128501 23.082937,11.7781425 23.0086047,12.1285234 C22.8544155,12.8645754 22.8443706,12.9482635 22.7740562,13.3122563 L22.7278497,13.3601501 C22.171362,13.3525879 21.9805089,13.3525879 21.341653,13.3848532 L21.3125228,13.3314138 C21.4189988,12.8938158 21.5234658,12.4526888 21.6259238,12.016099 C21.8941227,10.8308537 21.9574056,10.3766189 22.0317379,9.77416536 L22.0819624,9.73837105 C22.7062531,9.65064979 22.8579312,9.63350885 23.5334509,9.49386063 L23.5866889,9.55788707 L23.4887511,9.93549182 C23.5997473,9.86793637 23.7127525,9.79886847 23.8277666,9.73837105 C24.1441811,9.58107775 24.5017796,9.53469639 24.693135,9.53469639 C24.9889575,9.53469639 25.3129056,9.61788035 25.4520275,9.96120323 C25.5790955,10.2672194 25.4932116,10.6453283 25.3229505,11.3884383 L25.2380711,11.766043 C25.0612808,12.5933453 25.0341595,12.7445888 24.9407419,13.3122563 L24.8739433,13.3601501 Z" id="Fill-34" fill="#FFFFFF"></path>
                <path d="M30.1356646,8.89760811 C30.0402381,9.32713982 29.7624965,9.69163679 29.4033912,9.86758346 C29.1065643,10.0173146 28.74545,10.0284058 28.3717796,10.0284058 L28.1312042,10.0284058 L28.149285,9.93211405 C28.149285,9.93211405 28.5947764,7.99065091 28.5927675,7.99670065 L28.6058258,7.89738405 L28.6138618,7.82075398 L28.7916566,7.83940735 C28.7916566,7.83940735 29.7067473,7.91906229 29.7298505,7.92158302 C30.0919693,8.0597188 30.2401316,8.42471992 30.1356646,8.89760811 M29.5515535,6.87296101 C29.54854,6.87296101 29.1025463,6.87901076 29.1025463,6.87901076 C27.9358308,6.89211853 27.4682405,6.88657293 27.2763829,6.86338225 C27.2567953,6.94908694 27.2271628,7.10133879 27.2271628,7.10133879 L26.8102993,9.04834752 C26.8102993,9.04834752 25.8113337,13.1838505 25.7636204,13.3779464 C26.7816714,13.3668553 27.1995394,13.3668553 27.3738184,13.3845003 C27.4134958,13.1904044 27.6520623,12.0354078 27.6520623,12.0354078 C27.6520623,12.0354078 27.8549693,11.1869314 27.8670232,11.1556744 C27.8670232,11.1556744 27.9298038,11.0689615 27.9945935,11.0341754 L28.0875088,11.0341754 C28.9649311,11.0341754 29.9583721,11.0341754 30.7348431,10.4589458 C31.2627028,10.0652084 31.6268306,9.48392897 31.7870468,8.77862985 C31.8302398,8.6052039 31.8603746,8.39749608 31.8603746,8.19180484 C31.8603746,7.92158302 31.8061321,7.65388192 31.6484271,7.44415752 C31.2526579,6.88657293 30.4651375,6.87901076 29.5515535,6.87296101" id="Fill-36" fill="#FFFFFF"></path>
                <path d="M39.7167447,9.58914407 L39.6650134,9.53116738 C39.0000408,9.66476585 38.8784975,9.68795653 38.2657584,9.76912391 L38.2195518,9.81348868 C38.2175428,9.82105086 38.2155339,9.83315035 38.2140271,9.84272911 L38.2110136,9.83315035 C37.754975,10.8913511 37.7695401,10.6624692 37.3973765,11.4933005 C37.3948652,11.4539771 37.394363,11.429274 37.3933585,11.3899507 L37.3009454,9.58914407 L37.2421827,9.53116738 C36.5460709,9.66476585 36.5274878,9.68795653 35.8831073,9.76912391 L35.831376,9.81348868 C35.8268558,9.83718351 35.8253491,9.86037419 35.8218334,9.88558145 L35.8268558,9.89516021 C35.907215,10.3100717 35.888632,10.2168048 35.968489,10.8676563 C36.0061573,11.1872843 36.0553774,11.5109456 36.0930458,11.8260363 C36.1573331,12.3553888 36.1924903,12.6170401 36.2688316,13.4226641 C35.835394,14.1456083 35.7304247,14.4183509 35.3160725,15.0525655 L35.3381713,15.1100381 C35.968489,15.0863433 36.1136378,15.0863433 36.5797213,15.0863433 L36.6826816,14.970894 C37.0347555,14.2091306 39.7167447,9.58914407 39.7167447,9.58914407" id="Fill-38" fill="#FFFFFF"></path>
                <path d="M16.9316893,10.0366738 C17.2872788,9.78712189 17.3329832,9.44228658 17.0316361,9.26331503 C16.726271,9.0833352 16.1948956,9.13979946 15.8352881,9.38985548 C15.4731693,9.63587833 15.4334919,9.98172194 15.7353413,10.1622059 C16.0376929,10.3381526 16.5715795,10.2867298 16.9316893,10.0366738" id="Fill-40" fill="#FFFFFF"></path>
                <path d="M36.6357217,15.0343659 L36.1113777,15.9352734 C35.9456368,16.2428019 35.6377605,16.4742046 35.1485737,16.475717 L34.31334,16.4621051 L34.5564266,15.6499272 L34.7181496,15.6499272 C34.8040335,15.6499272 34.8668142,15.6443816 34.9150297,15.6206868 C34.9562138,15.607579 34.9868508,15.5748095 35.0210034,15.5264116 L35.3288797,15.0343659 L36.6357217,15.0343659 Z" id="Fill-42" fill="#FFFFFF"></path>
            </g>
        </g>
    </g>
</svg>