<svg width="98" height="25" viewBox="0 0 98 25" fill="none" xmlns="http://www.w3.org/2000/svg">
<g clip-path="url(#clip0_72_532)">
<path fill-rule="evenodd" clip-rule="evenodd" d="M2.44993 5.29895C2.44993 5.29895 5.86938 3.98035 9.84321 3.98035C13.8172 3.98035 15.6275 5.39501 15.5085 8.37248C15.4073 10.8953 13.7898 19.0104 13.7898 19.0104H9.57067C9.57067 19.0104 11.1479 10.7075 11.1479 9.27187C11.1479 7.8364 9.03447 7.71066 8.65581 7.71066C8.2773 7.71066 7.16706 7.71066 6.18272 8.18235C5.95556 9.54812 4.21432 18.9343 4.21432 18.9343H0L2.44993 5.29895Z" fill="#1E417E"/>
<path fill-rule="evenodd" clip-rule="evenodd" d="M17.7307 8.24647L18.2607 4.91909C18.2607 4.91909 20.9608 3.98035 23.5097 3.98035C26.0585 3.98035 29.6924 4.52173 29.6924 7.99804C29.6924 8.81753 28.1167 17.6544 28.0158 18.449C26.0979 19.1194 23.9529 19.2683 22.7416 19.2683C21.5303 19.2683 16.2054 18.8959 16.2054 14.7242C16.2054 10.2298 21.4041 9.65876 25.2399 10.0808C25.5176 9.28631 26.0979 7.42393 22.6153 7.42393C21.5555 7.42393 18.9278 7.80261 17.7307 8.24647ZM24.8159 12.3853C24.8159 12.3853 22.5547 12.2462 21.929 12.4845C21.3031 12.7229 20.3744 13.2791 20.3744 14.5108C20.3744 15.7423 21.6867 16.4773 22.8778 16.4773C23.221 16.4773 23.7661 16.4576 24.1093 16.2787C24.392 14.8286 24.8159 12.3853 24.8159 12.3853Z" fill="#1E417E"/>
<path fill-rule="evenodd" clip-rule="evenodd" d="M47.7622 8.24647L48.2922 4.91909C48.2922 4.91909 50.9924 3.98035 53.5412 3.98035C56.09 3.98035 59.7239 4.52173 59.7239 7.99804C59.7239 8.81753 58.1482 17.6544 58.0473 18.449C56.1294 19.1194 53.9844 19.2683 52.773 19.2683C51.5616 19.2683 46.2369 18.8959 46.2369 14.7242C46.2369 10.2298 51.4356 9.65876 55.2714 10.0808C55.5491 9.28631 56.1294 7.42393 52.6468 7.42393C51.587 7.42393 48.9593 7.80261 47.7622 8.24647ZM54.8474 12.3853C54.8474 12.3853 52.5862 12.2462 51.9605 12.4845C51.3346 12.7229 50.4059 13.2791 50.4059 14.5108C50.4059 15.7423 51.7181 16.4773 52.9093 16.4773C53.2525 16.4773 53.7976 16.4576 54.1408 16.2787C54.4235 14.8286 54.8474 12.3853 54.8474 12.3853Z" fill="#1E417E"/>
<path fill-rule="evenodd" clip-rule="evenodd" d="M32.4713 5.23294C32.4713 5.23294 35.5221 3.95276 38.6177 3.95276C39.6047 3.95276 45.4818 3.99688 45.4818 10.4419C45.4818 12.4726 45.2576 19.1383 37.4962 19.1383C36.24 19.1383 34.4004 18.5645 34.4004 18.5645L33.2358 25H28.8715L32.4713 5.23294ZM36.2128 8.30951C36.2128 8.30951 36.9372 7.77622 38.4806 7.77622C40.0243 7.77622 41.2983 8.6923 41.2983 10.5245C41.2983 12.3569 40.4653 15.8284 37.1576 15.8284C36.643 15.8284 35.2221 15.5392 34.9525 15.2981C35.271 13.2006 36.2128 8.30951 36.2128 8.30951Z" fill="#1E417E"/>
<path fill-rule="evenodd" clip-rule="evenodd" d="M71.8208 8.9956C71.8208 8.9956 72.3436 5.97136 72.4689 5.43647C71.2981 4.57246 69.5837 3.97583 67.7647 3.97583C65.9457 3.97583 61.4296 4.34616 61.4296 8.81037C61.4296 9.69505 61.5551 11.6906 64.3985 12.781C67.242 13.8713 67.7437 13.645 67.7437 14.756C67.7437 15.8669 66.4056 15.9904 65.6529 15.9904C64.9003 15.9904 62.9976 15.7434 60.7813 13.9536C60.635 15.4555 60.2796 17.163 60.2169 17.5126C61.1786 18.3768 62.8721 19.2202 65.7575 19.2202C68.6428 19.2202 72.0508 17.9654 72.0508 14.2622C72.0508 13.0484 71.8834 11.0117 66.9284 9.69505C66.0293 9.46888 65.6948 8.89278 65.6948 8.4195C65.6948 7.94636 66.071 7.30865 67.7228 7.30865C69.3745 7.30865 71.089 8.21387 71.8208 8.9956Z" fill="#1E417E"/>
<path fill-rule="evenodd" clip-rule="evenodd" d="M95.8832 5.84448L88.3431 5.87072L80.6089 13.1046L88.1491 13.0785L95.8832 5.84448Z" fill="#049BD7"/>
<path fill-rule="evenodd" clip-rule="evenodd" d="M89.4687 0H81.8697V8.5145L89.4687 12.5814V0Z" fill="#1E417E"/>
<path fill-rule="evenodd" clip-rule="evenodd" d="M75.3417 4.28601H82.9986L95.5248 18.9155H88.0909L75.3417 4.28601Z" fill="#A5CE39"/>
<path fill-rule="evenodd" clip-rule="evenodd" d="M78.186 21.4939H85.657L89.4683 11.842L84.6907 13.0819L80.5649 15.6786L78.186 21.4939Z" fill="#049BD7"/>
<path fill-rule="evenodd" clip-rule="evenodd" d="M89.4701 11.8407L81.9435 11.8543L74.3428 18.9635H81.8883L87.3541 13.8511L89.4701 11.8407Z" fill="#1E417E"/>
<path fill-rule="evenodd" clip-rule="evenodd" d="M95.6459 8.98266V7.60059H96.2687C96.3939 7.60059 96.489 7.61304 96.5541 7.63782C96.6193 7.66259 96.6714 7.70645 96.7103 7.76939C96.7492 7.83219 96.7688 7.90162 96.7688 7.97767C96.7688 8.07572 96.7365 8.1584 96.672 8.22571C96.6075 8.29288 96.5078 8.33555 96.373 8.35383C96.4222 8.37715 96.4596 8.39994 96.4852 8.4226C96.5395 8.47175 96.5909 8.53297 96.6394 8.6065L96.8838 8.98266H96.65L96.464 8.69514C96.4098 8.6122 96.3651 8.54873 96.3299 8.50461C96.2948 8.46075 96.2633 8.42988 96.2355 8.41226C96.2078 8.39477 96.1795 8.38232 96.1508 8.37556C96.1297 8.37119 96.0952 8.36893 96.0473 8.36893H95.8318V8.98266H95.6459ZM95.8318 8.2106H96.2312C96.3162 8.2106 96.3826 8.20186 96.4307 8.18463C96.4785 8.16727 96.5149 8.13958 96.5397 8.10169C96.5646 8.06366 96.577 8.02232 96.577 7.97767C96.577 7.91235 96.5531 7.85856 96.5047 7.81642C96.4565 7.77442 96.3804 7.75335 96.2763 7.75335H95.8318V8.2106Z" fill="#1E417E"/>
<path fill-rule="evenodd" clip-rule="evenodd" d="M96.1376 7.21765C95.5299 7.21765 95.0365 7.70312 95.0365 8.30094C95.0365 8.8989 95.5299 9.38437 96.1376 9.38437C96.7452 9.38437 97.2385 8.8989 97.2385 8.30094C97.2385 7.70312 96.7452 7.21765 96.1376 7.21765Z" stroke="#1E417E" stroke-width="0.1144" stroke-linecap="round" stroke-linejoin="round"/>
</g>
<defs>
<clipPath id="clip0_72_532">
<rect width="98" height="25" fill="white"/>
</clipPath>
</defs>
</svg>
