<svg width="93" height="31" viewBox="0 0 93 31" fill="none" xmlns="http://www.w3.org/2000/svg">
<g clip-path="url(#clip0_72_519)">
<rect width="93" height="31" fill="white"/>
<g clip-path="url(#clip1_72_519)">
<path fill-rule="evenodd" clip-rule="evenodd" d="M0 31H39.2878V17.7141H0V31Z" fill="#82BC00"/>
<path fill-rule="evenodd" clip-rule="evenodd" d="M0 13.2854H39.2878V0H0V13.2854Z" fill="#00A0DF"/>
<path fill-rule="evenodd" clip-rule="evenodd" d="M54.597 20.0289C53.1179 20.0289 51.8909 20.53 51.4322 20.7453L51.3169 20.7997L51.214 20.7228C50.5883 20.2559 49.6605 20.0289 48.3804 20.0289C47.2548 20.0289 46.1903 20.1905 45.0315 20.5364C44.0391 20.8462 43.653 21.3235 43.653 22.2376V30.6739H46.753V22.8749L46.9028 22.8254C47.5347 22.6176 47.9032 22.5756 48.2633 22.5756C49.1601 22.5756 49.6158 23.0582 49.6158 24.0076V30.6739H52.6751V23.8698C52.6751 23.4694 52.5989 23.2288 52.5803 23.1907L52.4793 22.9852L52.6868 22.8933C53.1541 22.6825 53.6652 22.5756 54.205 22.5756C54.8217 22.5756 55.5584 22.8247 55.5584 24.0076V30.6739H58.6173V23.6907C58.6173 21.2267 57.3023 20.0289 54.597 20.0289ZM65.553 20.0089C64.3705 20.0089 63.1678 20.2213 61.6544 20.6965L60.6757 20.9983L61.0029 23.2412L61.9564 22.9249C62.956 22.5921 64.2054 22.3782 65.1416 22.3782C65.5629 22.3782 66.8476 22.3782 66.8476 23.7891V24.4062H65.0627C61.8117 24.4062 60.2973 25.4559 60.2973 27.71C60.2973 29.6406 61.6905 30.7941 64.0239 30.7941C64.7543 30.7941 65.7485 30.6567 66.6195 30.438L66.6641 30.4258L66.7088 30.4338L66.995 30.485C67.9106 30.6494 68.8541 30.8182 69.7692 30.9989V23.6109C69.7692 21.2207 68.3502 20.0089 65.553 20.0089ZM66.887 28.3751L66.7269 28.4177L66.1389 28.5771C65.5957 28.7244 65.1095 28.8035 64.7297 28.8035C63.8329 28.8035 63.2983 28.3496 63.2983 27.591C63.2983 27.0933 63.5171 26.2579 64.9835 26.2579H66.887V28.3751ZM88.2109 20.0089C87.0295 20.0089 85.8269 20.2206 84.3119 20.6965L83.3314 20.9987L83.6601 23.2412L84.613 22.9245C85.6162 22.5921 86.8663 22.3773 87.7993 22.3773C88.2216 22.3773 89.5053 22.3773 89.5053 23.7891V24.4069H87.7204C84.4692 24.4069 82.9559 25.4559 82.9559 27.71C82.9559 29.6415 84.3473 30.7937 86.681 30.7937C87.4084 30.7937 88.4026 30.6572 89.2763 30.4373L89.3216 30.4269L89.3665 30.435L89.6545 30.4857C90.5692 30.6503 91.5121 30.8193 92.4272 31.0001V23.6109C92.4272 21.2214 91.0089 20.0089 88.2109 20.0089ZM89.5447 28.3751L89.3849 28.4177L88.7964 28.5771C88.2518 28.7257 87.7656 28.8042 87.3874 28.8042C86.4915 28.8042 85.9551 28.3496 85.9551 27.5898C85.9551 27.0929 86.175 26.2569 87.6424 26.2569H89.5447V28.3751ZM78.492 15.7832L78.1759 15.8373V20.4774L77.9028 20.3981L77.8194 20.3742C77.509 20.2827 76.7832 20.0683 76.0783 20.0683C72.2527 20.0683 71.4495 23.0015 71.4495 25.4607C71.4495 28.8379 73.3156 30.7751 76.5682 30.7751C77.9408 30.7751 78.9653 30.6294 79.9923 30.2868C80.9386 29.9786 81.2761 29.539 81.2761 28.6053V15.2986C80.3565 15.4676 79.4093 15.6288 78.492 15.7832ZM78.1759 28.2877L78.003 28.3223C77.4023 28.4434 77.172 28.4849 76.7255 28.4849C75.7053 28.4849 74.4896 27.9575 74.4896 25.441C74.4896 24.1507 74.7075 22.4367 76.6077 22.4367H76.6209C76.9432 22.4564 77.3171 22.4935 78.0217 22.7045L78.1759 22.7502V28.2877Z" fill="black"/>
<mask id="mask0_72_519" style="mask-type:alpha" maskUnits="userSpaceOnUse" x="43" y="0" width="50" height="13">
<path d="M43.6532 0.000244141H92.4689V12.3635H43.6532V0.000244141Z" fill="black"/>
</mask>
<g mask="url(#mask0_72_519)">
<path fill-rule="evenodd" clip-rule="evenodd" d="M60.973 12.3614H61.112C64.3627 12.3614 65.8767 11.2709 65.8767 8.58469C65.8767 6.65368 64.4839 5.113 62.151 5.113H59.1512C58.2546 5.113 57.7195 4.59677 57.7195 3.72139C57.7195 3.12971 57.9386 2.38873 59.4057 2.38873H65.9549C66.0903 1.52482 66.1699 0.977622 66.2971 0.123576H59.4844C56.3103 0.123576 54.719 1.46771 54.719 3.72139C54.719 5.94503 56.112 7.10364 58.4456 7.10364H61.4445C62.3413 7.10364 62.8759 7.82605 62.8759 8.58469C62.8759 9.08189 62.6569 10.1098 61.1902 10.1098H60.6859L51.0854 10.0882V10.0949H49.3397C47.8595 10.0949 46.8167 9.23486 46.8167 7.2706V5.90375C46.8167 3.84707 47.6226 2.56738 49.3397 2.56738H52.1998C52.3303 1.68719 52.4101 1.13999 52.5326 0.302228H48.9873H48.6455C45.7352 0.302228 43.7285 2.28094 43.6598 5.72395H43.6532V5.85101L43.6598 7.26234C43.7285 10.7056 45.7352 12.3479 48.6455 12.3479H48.9873H51.4832C51.4832 12.3476 51.4834 12.3472 51.4834 12.3465L56.6821 12.3561V12.3614H59.781L60.973 12.3635V12.3614ZM87.2569 0.00156919C87.2298 -0.00141217 87.2006 0.00156919 87.1753 0.00156919C85.3922 0.00156919 83.5556 0.495558 82.903 1.46932C82.5465 1.94152 82.3535 2.53642 82.3424 3.23383L82.341 3.23796V7.93062C82.341 8.33104 82.2655 8.48309 82.2454 8.52047L82.1457 8.72619H76.5121V5.4554H76.5055C76.4366 2.01239 74.4298 0.123576 71.5196 0.123576H71.1775H68.6809C68.5582 0.96455 68.4718 1.55325 68.3534 2.38873H71.1775C72.6584 2.38873 73.4368 3.67117 73.4368 5.63543V8.92479L73.2342 8.82228C73.1976 8.80347 72.9593 8.72619 72.5649 8.72619H67.6921C67.6008 9.35296 67.4819 10.1673 67.3526 10.9916H82.341C82.8469 10.892 83.448 10.7964 83.9612 10.7021C84.718 11.0787 86.13 11.2766 87.1066 11.2766C90.3641 11.2766 92.4692 9.06973 92.4692 5.65217C92.4692 2.27635 90.4274 0.0699112 87.2569 0.00156919ZM87.2628 8.66083C86.8163 8.66083 86.0568 8.61955 85.4561 8.49823L85.2832 8.46337V3.90716C85.2832 3.52485 85.2113 3.29506 85.1928 3.2586L85.0962 3.06274L85.2938 2.97445C85.3417 2.95312 85.3922 2.93936 85.4417 2.92055L85.4738 2.89946C85.5425 2.87469 85.6098 2.85428 85.6777 2.83341C85.708 2.82378 85.7364 2.81277 85.7679 2.80382C86.454 2.61095 87.0856 2.63044 87.3679 2.61416H87.381C89.2806 2.61416 89.4987 4.32822 89.4987 5.618C89.4987 8.13313 88.2828 8.66083 87.2628 8.66083Z" fill="black"/>
</g>
</g>
</g>
<defs>
<clipPath id="clip0_72_519">
<rect width="93" height="31" fill="white"/>
</clipPath>
<clipPath id="clip1_72_519">
<rect width="93" height="31" fill="white"/>
</clipPath>
</defs>
</svg>
