<?xml version="1.0" encoding="UTF-8"?>
<svg width="43px" height="28px" viewBox="0 0 43 28" version="1.1" xmlns="http://www.w3.org/2000/svg" xmlns:xlink="http://www.w3.org/1999/xlink">
    <title>img_mastercard</title>
    <g id="img_mastercard" stroke="none" stroke-width="1" fill="none" fill-rule="evenodd">
        <g id="Group-9" transform="translate(3.000000, 2.000000)">
            <polygon id="Fill-1" fill="#FF5F00" points="13.8629475 21.4343229 24.1381979 21.4343229 24.1381979 2.5661922 13.8629475 2.5661922"></polygon>
            <g id="Group-8">
                <path d="M14.5153117,12.0002575 C14.5120498,8.31836213 16.1658758,4.83946096 19.0005401,2.5661922 C13.9014063,-1.52935812 6.51888354,-0.625383803 2.51120969,4.58480153 C-1.49679037,9.79498685 -0.612140238,17.3391059 4.48666735,21.4343229 C8.74551399,24.8552257 14.7416934,24.8552257 19.0005401,21.4343229 C16.1658758,19.1610541 14.5120498,15.682153 14.5153117,12.0002575" id="Fill-2" fill="#EB001B"></path>
                <path d="M38,12.0002575 C38.0003262,18.6274026 32.7429862,23.9995833 26.2578353,23.9999167 C23.6257402,23.9999167 21.0699755,23.096609 19.0005727,21.4343229 C24.0993803,17.3374393 24.9827256,9.79232026 20.9734208,4.58213493 C20.3963758,3.83248956 19.734193,3.15550879 19.0005727,2.5661922 C24.0990541,-1.52935812 31.4815769,-0.625717127 35.4892507,4.5844682 C37.1160023,6.6990748 38,9.31066728 38,12.0002575" id="Fill-4" fill="#F79E1B"></path>
                <path d="M37.6439605,19.4359463 L37.6439605,18.9702929 L37.5236176,18.9702929 L37.3854706,19.2906171 L37.2469938,18.9702929 L37.1266509,18.9702929 L37.1266509,19.4359463 L37.2117152,19.4359463 L37.2117152,19.084623 L37.3412899,19.3876144 L37.4293216,19.3876144 L37.5592259,19.0839563 L37.5592259,19.4359463 L37.6439605,19.4359463 Z M36.8823384,19.4359463 L36.8823384,19.049624 L37.0363113,19.049624 L37.0363113,18.9709595 L36.6439605,18.9709595 L36.6439605,19.049624 L36.7979335,19.049624 L36.7979335,19.4359463 L36.8823384,19.4359463 Z" id="Fill-6" fill="#F79E1B"></path>
            </g>
        </g>
    </g>
</svg>